<svg width="503" height="500" viewBox="0 0 503 500" fill="none" xmlns="http://www.w3.org/2000/svg">
<path d="M355.701 450.487C355.701 451.195 354.721 451.903 352.706 452.447L305.397 465.132C301.368 466.221 294.89 466.221 290.915 465.132L63.2413 404.103C61.227 403.559 60.2471 402.851 60.2471 402.144C60.2471 401.436 61.227 400.728 63.2413 400.184L110.551 387.499C114.58 386.41 121.058 386.41 125.032 387.499L352.652 448.473C354.721 449.072 355.701 449.78 355.701 450.487Z" fill="url(#paint0_linear_489_3673)"/>
<path d="M137.881 311.88C145.829 309.757 151.437 300.719 151.437 288.361L204.245 274.206C204.245 286.565 198.637 295.602 190.689 297.725L137.881 311.88Z" fill="url(#paint1_linear_489_3673)"/>
<path d="M116.921 306.109C114.471 306.762 111.858 306.762 109.081 306C97.2672 302.842 87.6855 287.218 87.6855 271.103L140.494 256.948C140.494 273.063 150.075 288.688 161.889 291.845C164.666 292.607 167.279 292.553 169.729 291.954L116.921 306.109Z" fill="url(#paint2_linear_489_3673)"/>
<path d="M87.74 271.158L60.2471 263.808L113.055 249.653L140.494 257.003L87.74 271.158Z" fill="url(#paint3_linear_489_3673)"/>
<path d="M157.971 423.049V385.648L210.779 371.493V408.949L157.971 423.049Z" fill="url(#paint4_linear_489_3673)"/>
<path d="M165.809 385.757C173.758 383.634 179.365 374.597 179.365 362.238C179.365 346.124 169.784 330.499 157.97 327.341L210.778 313.187C222.592 316.344 232.173 331.969 232.173 348.084C232.173 360.442 226.566 369.479 218.617 371.602L165.809 385.757Z" fill="url(#paint5_linear_489_3673)"/>
<path d="M157.97 327.341V289.94L210.778 275.84V313.241L157.97 327.341Z" fill="url(#paint6_linear_489_3673)"/>
<path d="M157.97 289.94L130.478 282.59L183.286 268.436L210.779 275.84L157.97 289.94Z" fill="url(#paint7_linear_489_3673)"/>
<path d="M157.969 423.049L78.8116 401.817C68.5766 399.095 60.2471 385.539 60.2471 371.548V263.808L87.6855 271.158C87.6855 287.272 97.2672 302.897 109.081 306.055C111.858 306.817 114.471 306.762 116.921 306.163C124.869 304.04 130.476 295.003 130.476 282.645L157.915 289.994V327.396C169.729 330.553 179.31 346.178 179.31 362.292C179.31 374.651 173.703 383.688 165.754 385.811C163.305 386.464 160.691 386.464 157.915 385.702V423.049H157.969Z" fill="url(#paint8_linear_489_3673)"/>
<path d="M157.97 289.94V252.538L210.778 238.384V275.785L157.97 289.94Z" fill="url(#paint9_linear_489_3673)"/>
<path d="M157.97 252.539C146.156 249.381 136.574 233.756 136.574 217.642C136.574 205.283 142.182 196.246 150.13 194.123L202.938 179.968C194.99 182.091 189.382 191.129 189.382 203.487C189.382 219.601 198.964 235.226 210.778 238.384L157.97 252.539Z" fill="url(#paint10_linear_489_3673)"/>
<path d="M157.972 194.232V156.83L210.78 142.676V180.077L157.972 194.232Z" fill="url(#paint11_linear_489_3673)"/>
<path d="M157.971 156.831L78.8131 135.599C76.4177 134.945 74.1311 134.945 72.0079 135.544L124.816 121.389C126.939 120.845 129.226 120.845 131.621 121.444L210.779 142.676L157.971 156.831Z" fill="url(#paint12_linear_489_3673)"/>
<path d="M116.921 306.109C114.471 306.762 111.858 306.762 109.081 306C97.2672 302.842 87.6855 287.218 87.6855 271.103L60.2471 263.754V155.96C60.2471 145.289 65.1468 137.45 72.0064 135.599C74.1296 135.054 76.4162 135.054 78.8116 135.653L157.969 156.885V194.286C155.193 193.524 152.58 193.579 150.13 194.177C142.181 196.301 136.574 205.338 136.574 217.696C136.574 233.811 146.156 249.435 157.969 252.593V289.994L130.531 282.645C130.476 294.949 124.869 303.986 116.921 306.109Z" fill="url(#paint13_linear_489_3673)"/>
<path d="M231.575 215.519C231.575 215.519 235.277 227.224 235.876 231.742C236.312 235.063 236.312 238.547 237.782 239.854C239.251 241.161 250.249 245.026 260.429 247.258C270.61 249.49 276.489 245.08 274.094 240.997C271.698 236.914 254.277 229.728 252.045 224.12C249.813 218.513 248.125 210.183 248.125 210.183L231.575 215.519Z" fill="url(#paint14_linear_489_3673)"/>
<path d="M141.747 106.037C141.747 106.037 147.191 129.284 172.561 135.817C197.93 142.349 205.824 142.731 205.824 142.731C205.824 142.731 207.784 163.092 216.767 182.146C225.75 201.201 232.392 219.384 232.392 219.384C232.392 219.384 241.32 221.072 249.65 214.865C249.65 214.865 234.515 150.08 232.283 140.444C230.051 130.808 226.893 124.547 220.306 121.498C213.718 118.395 168.423 101.137 168.423 101.137L141.747 106.037Z" fill="url(#paint15_linear_489_3673)"/>
<path d="M274.095 240.997C273.714 244.264 268.27 246.931 259.94 245.08C249.76 242.848 238.763 238.983 237.293 237.676C236.912 237.35 236.639 236.86 236.422 236.315C236.639 237.894 237.02 239.201 237.783 239.908C239.253 241.215 250.25 245.08 260.43 247.312C270.611 249.545 276.49 245.135 274.095 240.997Z" fill="url(#paint16_linear_489_3673)"/>
<path d="M173.758 233.266C173.758 233.266 175.773 245.407 175.718 249.926C175.664 253.246 175.174 256.731 176.48 258.201C177.787 259.671 188.131 265.06 197.876 268.708C207.621 272.355 214.099 268.817 212.303 264.407C210.506 259.997 194.283 250.47 192.867 244.59C191.452 238.711 190.962 230.218 190.962 230.218L173.758 233.266Z" fill="url(#paint17_linear_489_3673)"/>
<path d="M129.116 105.329L157.97 102.226C157.97 102.226 180.182 134.347 184.102 140.934C188.022 147.521 189.111 155.688 188.73 164.126C188.348 172.619 191.833 236.479 191.833 236.479C181.325 242.304 174.411 238.384 174.411 238.384C162.38 188.625 160.638 157.158 160.638 157.158C160.638 157.158 141.583 141.369 134.234 131.679C124.489 118.94 129.116 105.329 129.116 105.329Z" fill="url(#paint18_linear_489_3673)"/>
<path d="M212.249 264.461C211.432 267.673 205.662 269.524 197.659 266.476C187.914 262.828 177.515 257.438 176.263 255.968C175.937 255.587 175.719 255.097 175.61 254.499C175.61 256.077 175.773 257.438 176.481 258.255C177.733 259.779 188.131 265.115 197.876 268.762C207.621 272.41 214.046 268.871 212.249 264.461Z" fill="url(#paint19_linear_489_3673)"/>
<path d="M184.538 69.18C184.538 69.18 187.913 76.9652 191.18 83.9337C195.644 93.5153 212.031 86.8735 206.641 75.4408C201.088 63.6815 200.326 61.8849 200.326 61.8849L184.538 69.18Z" fill="url(#paint20_linear_489_3673)"/>
<path d="M203.484 66.4581C203.484 66.4581 194.175 44.8993 190.201 39.8363C186.771 35.4265 170.166 38.4208 176.209 52.7934C181.599 65.6415 186.063 75.0054 186.063 75.0054C186.063 75.0054 196.08 71.9023 203.484 66.4581Z" fill="url(#paint21_linear_489_3673)"/>
<path d="M249.651 121.879C247.8 120.736 239.416 115.237 235.66 111.916C232.992 109.575 218.892 102.879 195.591 88.3433C184.104 81.157 194.883 65.9679 206.425 74.7874C221.941 86.6556 238.818 100.32 241.159 101.083C243.5 101.845 246.984 101.464 248.889 101.355C250.686 101.246 252.21 101.028 252.863 101.845C253.517 102.661 251.23 103.641 249.815 104.077C248.399 104.512 246.603 105.111 247.8 105.873C247.8 105.873 255.477 110.555 257.545 111.808C259.614 113.114 258.09 115.237 256.076 114.149C254.061 113.06 247.855 109.739 247.855 109.739C247.855 109.739 256.511 115.292 258.308 116.49C260.159 117.687 258.525 120.083 256.348 118.776C254.17 117.469 246.385 112.461 246.385 112.461C246.385 112.461 252.21 116.598 254.769 118.504C256.674 119.919 255.313 122.043 252.918 120.573C250.032 118.776 244.371 115.02 244.371 115.02C244.371 115.02 248.998 118.504 250.958 120.137C252.319 121.117 251.502 123.022 249.651 121.879Z" fill="url(#paint22_linear_489_3673)"/>
<path d="M245.842 106.363C245.842 106.363 243.283 110.719 235.607 107.67" stroke="white" stroke-miterlimit="10" stroke-linecap="round" stroke-linejoin="round"/>
<path d="M125.96 113.876C125.96 113.876 130.479 85.948 139.516 54.6442C145.723 32.9766 181.491 30.8533 189.112 38.6385C195.972 45.6614 178.061 83.4437 178.66 103.26C178.823 108.922 167.935 115.891 155.304 116.762C128.301 118.613 125.96 113.876 125.96 113.876Z" fill="url(#paint23_linear_489_3673)"/>
<path d="M176.973 33.1942C170.004 32.9765 161.294 34.8275 153.617 38.965C154.87 41.796 159.17 47.839 167.936 50.1799C180.076 53.4464 186.718 47.2945 176.973 33.1942Z" fill="url(#paint24_linear_489_3673)"/>
<path d="M155.141 38.1483C155.141 38.1483 163.797 34.2829 161.674 25.7356L173.215 24.6468C173.215 24.6468 173.597 30.5265 175.284 32.813C176.972 35.0995 184.049 45.2801 176.809 47.6755C168.37 50.452 157.863 43.4291 155.141 38.1483Z" fill="url(#paint25_linear_489_3673)"/>
<path d="M180.02 44.191C180.401 41.4689 178.659 37.8758 177.08 35.3715L163.688 30.4173C163.688 30.4173 165.593 43.6466 174.63 45.062C177.026 45.4431 178.714 44.9531 180.02 44.191Z" fill="url(#paint26_linear_489_3673)"/>
<path d="M160.368 26.8245C156.339 22.4692 158.027 19.0938 160.586 17.7872C160.967 13.2686 162.11 10.4376 166.737 7.49779C174.196 2.70695 185.901 6.8445 187.97 12.3975C190.038 17.9505 187.207 23.2858 187.371 25.409C187.534 27.5322 186.99 31.1798 186.119 33.793C184.594 38.2027 182.253 41.687 179.041 42.0681C175.557 42.5036 161.783 36.0251 160.368 26.8245Z" fill="url(#paint27_linear_489_3673)"/>
<path d="M170.984 14.6842C172.128 17.0252 171.039 21.1627 168.208 22.306C165.377 23.4493 165.268 23.9937 165.268 23.9937C165.268 23.9937 165.704 18.1685 161.675 18.8218C159.933 19.094 157.211 22.1971 162.274 26.8246C162.383 29.0023 161.729 30.69 161.729 30.69C161.729 30.69 155.523 24.7559 155.795 17.0796C156.067 9.40339 161.022 8.80454 161.022 8.80454C161.022 8.80454 162.11 1.1283 171.529 0.148356C180.947 -0.831589 188.732 3.19707 190.583 7.49795C193.196 13.4321 188.678 18.4951 188.678 18.4951C188.678 18.4951 189.386 12.1799 184.867 13.8676C180.348 15.6097 174.904 17.243 170.984 14.6842Z" fill="url(#paint28_linear_489_3673)"/>
<path d="M183.399 26.77C183.399 26.77 183.997 31.6697 184.052 32.5408C184.106 33.4119 183.018 34.7185 181.384 33.793" stroke="#2E405C" stroke-miterlimit="10" stroke-linecap="round"/>
<path d="M177.954 27.8587C178.645 27.8587 179.206 27.2981 179.206 26.6066C179.206 25.915 178.645 25.3544 177.954 25.3544C177.262 25.3544 176.702 25.915 176.702 26.6066C176.702 27.2981 177.262 27.8587 177.954 27.8587Z" fill="#2E405C"/>
<path d="M186.229 27.5867C186.921 27.5867 187.481 27.0261 187.481 26.3346C187.481 25.643 186.921 25.0824 186.229 25.0824C185.538 25.0824 184.977 25.643 184.977 26.3346C184.977 27.0261 185.538 27.5867 186.229 27.5867Z" fill="#2E405C"/>
<path d="M179.696 22.4694C179.696 22.4694 177.845 20.7273 175.45 22.4694" stroke="#2E405C" stroke-miterlimit="10" stroke-linecap="round"/>
<path d="M188.732 22.3061C188.732 22.3061 186.881 20.564 184.486 22.3061" stroke="#2E405C" stroke-miterlimit="10" stroke-linecap="round"/>
<path d="M178.335 36.4607C178.335 36.4607 175.014 35.7529 175.069 32.1053" stroke="#2E405C" stroke-miterlimit="10" stroke-linecap="round"/>
<path d="M188.077 143.819C186.498 142.404 179.258 135.544 176.155 131.624C173.977 128.848 161.347 119.92 141.149 101.573C131.186 92.5355 144.361 79.5785 154.106 90.249C167.172 104.513 181.272 120.845 183.395 121.988C185.519 123.132 189.003 123.349 190.908 123.622C192.705 123.839 194.229 123.894 194.719 124.819C195.209 125.745 192.814 126.289 191.344 126.453C189.874 126.616 188.023 126.888 189.057 127.868C189.057 127.868 195.753 133.748 197.55 135.381C199.347 137.014 197.496 138.811 195.753 137.395C193.957 135.98 188.513 131.679 188.513 131.679C188.513 131.679 195.971 138.593 197.55 140.117C199.129 141.642 197.115 143.656 195.209 141.968C193.304 140.335 186.607 134.02 186.607 134.02C186.607 134.02 191.562 139.083 193.739 141.424C195.372 143.166 193.63 144.963 191.616 143.112C189.112 140.825 184.212 136.198 184.212 136.198C184.212 136.198 188.132 140.39 189.765 142.349C190.799 143.547 189.71 145.235 188.077 143.819Z" fill="url(#paint29_linear_489_3673)"/>
<path d="M138.429 77.6185C138.429 77.6185 137.83 86.1114 137.503 93.7876C137.013 104.349 154.598 106.091 155.142 93.461C155.687 80.4495 155.85 78.544 155.85 78.544L138.429 77.6185Z" fill="url(#paint30_linear_489_3673)"/>
<path d="M157.157 83.7704C157.157 83.7704 157.702 64.1715 157.865 57.7474C158.083 47.6757 140.662 43.4837 139.3 58.9995C138.103 72.8821 137.722 83.226 137.722 83.226C137.722 83.226 148.066 85.1314 157.157 83.7704Z" fill="url(#paint31_linear_489_3673)"/>
<path d="M213.23 398.605C210.78 399.259 208.167 399.259 205.39 398.496L258.199 384.342C260.975 385.104 263.588 385.049 266.038 384.451L213.23 398.605Z" fill="url(#paint32_linear_489_3673)"/>
<path d="M232.883 310.192L205.39 302.843L258.199 288.688L285.637 296.038L232.883 310.192Z" fill="url(#paint33_linear_489_3673)"/>
<path d="M291.353 457.239C298.267 455.388 303.113 447.548 303.113 436.878V328.975L355.921 314.82V422.668C355.921 433.339 351.021 441.178 344.161 443.029L291.353 457.239Z" fill="url(#paint34_linear_489_3673)"/>
<path d="M303.111 328.975L275.673 321.625L328.427 307.47L355.919 314.874L303.111 328.975Z" fill="url(#paint35_linear_489_3673)"/>
<path d="M275.674 321.625C275.674 305.51 266.092 289.886 254.278 286.728C251.502 285.966 248.888 286.02 246.438 286.619L299.247 272.464C301.696 271.811 304.31 271.811 307.086 272.573C318.9 275.731 328.482 291.356 328.482 307.47L275.674 321.625Z" fill="url(#paint36_linear_489_3673)"/>
<path d="M291.353 457.239C289.23 457.783 286.944 457.783 284.548 457.184L205.39 435.952V398.551C208.167 399.313 210.78 399.258 213.23 398.66C221.178 396.536 226.786 387.499 226.786 375.141C226.786 359.026 217.204 343.402 205.39 340.244V302.843L232.829 310.192C232.829 297.834 238.436 288.797 246.385 286.674C248.835 286.02 251.448 286.02 254.224 286.783C266.038 289.94 275.62 305.565 275.62 321.679L303.058 329.029V436.877C303.113 447.548 298.213 455.388 291.353 457.239Z" fill="url(#paint37_linear_489_3673)"/>
<path d="M243.334 242.521C245.729 239.091 248.833 236.914 252.153 236.043L304.962 221.888C301.641 222.759 298.538 224.937 296.142 228.366L243.334 242.521Z" fill="url(#paint38_linear_489_3673)"/>
<path d="M265.93 150.569C259.724 142.131 251.612 138.592 244.698 140.443L297.506 126.289C304.42 124.438 312.532 127.922 318.739 136.415L265.93 150.569Z" fill="url(#paint39_linear_489_3673)"/>
<path d="M298.049 317.161L347.645 246.441C354.069 237.295 352.817 221.017 344.814 210.129L283.132 126.017L335.94 111.862L397.622 195.974C405.625 206.862 406.877 223.14 400.453 232.286L350.857 303.006L298.049 317.161Z" fill="url(#paint40_linear_489_3673)"/>
<path d="M298.049 317.161L276.653 287.98C284.057 277.418 282.587 258.69 273.387 246.115C267.18 237.676 259.068 234.137 252.154 235.988C248.834 236.859 245.73 239.037 243.335 242.467L221.939 213.286L239.143 188.733C229.942 176.157 228.472 157.429 235.876 146.868C238.272 143.438 241.375 141.26 244.696 140.389C251.61 138.538 259.722 142.023 265.928 150.515L283.132 125.962L344.814 210.129C352.817 221.017 354.069 237.295 347.645 246.441L298.049 317.161Z" fill="url(#paint41_linear_489_3673)"/>
<path d="M123.129 431.324C123.129 431.597 122.748 431.869 121.986 432.032L66.4557 446.895C64.9858 447.276 62.536 447.276 61.066 446.895C60.3039 446.677 59.9228 446.459 59.9228 446.187C59.9228 445.915 60.3039 445.643 61.066 445.479L79.195 440.634L34.662 428.711L16.533 433.557C15.0631 433.938 12.6132 433.938 11.1433 433.557C10.3811 433.339 10 433.121 10 432.849C10 432.577 10.3811 432.304 11.1433 432.141L66.6735 417.279C68.1434 416.898 70.5933 416.898 72.0632 417.279C72.8254 417.496 73.2065 417.714 73.2065 417.986C73.2065 418.259 72.8254 418.531 72.0632 418.694L39.9972 427.296L84.5303 439.218L116.596 430.617C118.066 430.236 120.516 430.236 121.986 430.617C122.803 430.835 123.129 431.052 123.129 431.324Z" fill="url(#paint42_linear_489_3673)"/>
<path d="M142.675 163.799C141.205 163.799 140.062 164.997 140.062 166.413V184.106L95.6374 172.183V153.129C95.6374 151.659 94.4397 150.516 93.0242 150.516C91.5543 150.516 90.411 151.713 90.411 153.129V261.848C90.411 263.318 91.6087 264.461 93.0242 264.461C94.4941 264.461 95.6374 263.264 95.6374 261.848V237.023L140.062 248.946V275.186C140.062 276.656 141.259 277.8 142.675 277.8C144.145 277.8 145.288 276.602 145.288 275.186V166.413C145.288 164.943 144.09 163.799 142.675 163.799ZM95.6374 231.579V177.627L140.062 189.55V243.502L95.6374 231.579Z" fill="url(#paint43_linear_489_3673)"/>
<path d="M84.3663 183.017L134.071 196.355" stroke="url(#paint44_linear_489_3673)" stroke-width="10" stroke-miterlimit="10" stroke-linecap="round" stroke-linejoin="round"/>
<path d="M68.5791 237.894L118.284 251.232" stroke="url(#paint45_linear_489_3673)" stroke-width="10" stroke-miterlimit="10" stroke-linecap="round" stroke-linejoin="round"/>
<path d="M52.791 292.771L102.496 306.055" stroke="url(#paint46_linear_489_3673)" stroke-width="10" stroke-miterlimit="10" stroke-linecap="round" stroke-linejoin="round"/>
<path d="M37.0028 347.648L86.7078 360.932" stroke="url(#paint47_linear_489_3673)" stroke-width="10" stroke-miterlimit="10" stroke-linecap="round" stroke-linejoin="round"/>
<path d="M21.2148 402.525L70.9198 415.809" stroke="url(#paint48_linear_489_3673)" stroke-width="10" stroke-miterlimit="10" stroke-linecap="round" stroke-linejoin="round"/>
<path d="M142.674 166.413L62.2644 445.751" stroke="url(#paint49_linear_489_3673)" stroke-width="10" stroke-miterlimit="10" stroke-linecap="round" stroke-linejoin="round"/>
<path d="M12.6143 432.468L92.9698 153.075" stroke="url(#paint50_linear_489_3673)" stroke-width="10" stroke-miterlimit="10" stroke-linecap="round" stroke-linejoin="round"/>
<path d="M387.933 278.671C380.474 279.705 367.027 281.229 361.256 282.264C350.64 284.224 350.586 301.699 366.591 299.413C381.127 297.344 386.626 295.983 394.357 293.969C402.087 291.954 400.073 276.928 387.933 278.671Z" fill="url(#paint51_linear_489_3673)"/>
<path d="M373.45 221.67C374.321 223.685 377.587 234.192 378.785 239.091C379.656 242.63 386.135 256.186 397.077 281.828C402.467 294.513 387.224 299.63 382.759 285.584C376.716 266.748 370.946 245.842 369.421 243.882C367.897 241.922 363.814 240.235 362.18 239.2C360.602 238.22 359.241 237.513 359.132 236.478C359.077 235.444 361.582 235.934 362.943 236.369C364.358 236.859 366.264 237.349 365.665 236.043C365.665 236.043 361.963 227.713 360.983 225.427C360.003 223.14 362.507 222.269 363.541 224.338C364.576 226.407 367.842 232.776 367.842 232.776C367.842 232.776 363.868 223.14 363.052 221.071C362.235 219.003 364.957 217.968 365.991 220.309C367.026 222.65 370.619 231.361 370.619 231.361C370.619 231.361 368.169 224.556 367.135 221.452C366.372 219.166 368.768 218.186 369.857 220.799C371.218 224.011 373.776 230.381 373.776 230.381C373.776 230.381 371.925 224.828 371.218 222.323C370.782 220.745 372.579 219.601 373.45 221.67Z" fill="url(#paint52_linear_489_3673)"/>
<path d="M389.564 263.699C389.564 263.699 393.539 273.389 398.003 283.461C402.848 294.24 386.788 299.848 382.868 287.381C377.206 269.415 377.043 268.054 377.043 268.054C377.043 268.054 382.106 262.664 389.564 263.699Z" fill="url(#paint53_linear_489_3673)"/>
<path d="M408.4 449.072C408.4 449.072 416.839 463.88 423.807 469.433C427.836 472.645 426.529 474.932 420.595 479.668C414.661 484.405 407.965 490.012 405.352 490.393C402.739 490.774 402.956 489.685 406.332 485.439C413.028 477.109 409.217 472.046 396.097 456.041L408.4 449.072Z" fill="url(#paint54_linear_489_3673)"/>
<path d="M374.756 331.261C374.756 331.261 384.774 344.436 383.249 367.301C381.561 392.888 375.791 399.367 382.16 406.608C388.53 413.848 401.269 433.883 409.544 450.433C409.544 450.433 402.739 451.522 397.894 459.035C397.894 459.035 365.175 423.92 361.2 418.095C357.226 412.27 355.266 404.811 355.157 389.622C355.049 374.433 353.252 338.556 353.252 338.556L374.756 331.261Z" fill="url(#paint55_linear_489_3673)"/>
<path d="M428.652 473.516C428.652 473.516 425.767 469.488 421.52 467.473C421.52 467.473 418.798 467.637 415.586 471.175C411.666 475.476 409.652 473.625 408.182 472.536C406.658 471.393 407.093 478.416 407.093 479.559C407.202 481.737 405.841 484.405 403.555 487.671C401.268 490.883 400.833 492.68 402.03 494.095C403.228 495.511 408.345 493.333 411.122 491.155C413.844 488.978 428.652 473.516 428.652 473.516Z" fill="url(#paint56_linear_489_3673)"/>
<path d="M424.734 474.387C427.728 471.556 430.613 473.625 427.946 476.619C425.278 479.614 414.118 488.705 414.118 488.705C406.714 495.347 402.032 495.02 404.427 493.333C410.089 489.359 424.734 474.387 424.734 474.387Z" fill="url(#paint57_linear_489_3673)"/>
<path d="M397.622 498.614H328.808L332.074 490.176H397.622V498.614Z" fill="url(#paint58_linear_489_3673)"/>
<path d="M345.467 464.261C345.467 464.261 343.181 481.737 343.725 489.74C344.052 494.857 342.201 495.674 334.579 495.347C326.957 495.021 318.247 494.858 316.069 493.442C313.891 492.027 318.192 490.176 323.582 489.577C332.347 488.651 331.04 482.173 331.694 461.43L345.467 464.261Z" fill="url(#paint59_linear_489_3673)"/>
<path d="M345.14 470.087C345.14 470.087 351.564 448.746 349.822 424.084C348.951 411.78 352.109 407.316 358.097 394.141C364.576 379.932 373.559 357.447 367.679 337.467L335.994 341.442C335.994 341.442 330.006 376.284 327.719 395.121C326.467 405.084 330.877 470.141 330.877 470.141C330.877 470.141 336.539 473.026 345.14 470.087Z" fill="url(#paint60_linear_489_3673)"/>
<path d="M345.195 495.62C345.195 495.62 344.923 490.829 343.617 487.236C343.617 487.236 340.132 489.196 336.267 487.835C331.748 486.256 332.075 481.356 330.768 482.227C329.571 482.989 330.605 486.31 324.29 488.161C314.382 491.101 312.041 492.081 312.531 494.803C313.129 498.07 334.743 499.322 339.806 499.322C344.869 499.267 345.25 496.818 345.195 495.62Z" fill="url(#paint61_linear_489_3673)"/>
<path d="M312.639 493.061C312.639 493.115 312.639 493.17 312.639 493.224C313.238 496.491 333.708 497.47 338.825 497.47C342.309 497.47 344.705 496.599 345.14 495.511C345.14 495.565 345.14 495.619 345.14 495.619C345.195 496.763 344.814 499.267 339.696 499.267C334.579 499.267 313.02 498.015 312.421 494.748C312.367 494.095 312.421 493.551 312.639 493.061Z" fill="url(#paint62_linear_489_3673)"/>
<path d="M344.759 284.387L343.071 275.187L357.716 272.682L359.567 281.774L344.759 284.387Z" fill="url(#paint63_linear_489_3673)"/>
<path d="M333.871 354.127C333.871 354.127 369.965 359.625 381.997 346.341C381.997 346.341 376.226 330.227 376.226 313.241C376.226 292.989 376.716 287.436 371.435 284.877C366.154 282.318 361.037 285.422 359.512 278.453L343.616 281.447C343.616 281.447 344.541 284.333 339.914 285.748C335.286 287.164 326.14 288.797 326.358 296.854C326.63 307.035 324.888 312.043 326.358 316.453C328.317 322.387 333.544 321.516 334.633 334.092C335.395 343.783 333.871 354.127 333.871 354.127Z" fill="url(#paint64_linear_489_3673)"/>
<path d="M356.411 275.731C357.718 273.934 366.809 266.04 366.047 257.547C365.285 249.054 356.193 244.862 349.606 246.822C343.019 248.728 340.133 256.676 339.97 259.67C339.806 262.882 335.887 266.639 336.05 267.51C336.159 268.109 337.302 268.381 337.193 268.762C336.649 271.484 336.322 274.206 337.302 275.186C339.534 277.201 355.159 277.473 356.411 275.731Z" fill="url(#paint65_linear_489_3673)"/>
<path d="M368.388 263.862C370.402 252.92 364.087 251.504 364.087 251.504C364.087 251.504 361.093 244.209 351.13 244.209C344.978 244.209 340.35 249.054 340.35 253.137C340.405 257.221 344.161 258.146 343.617 262.882C343.072 267.619 339.207 266.421 338.554 269.797C338.554 269.797 338.772 268.272 340.895 268.544C343.018 268.817 345.468 267.401 346.502 263.808C346.502 263.808 350.749 263.372 350.749 267.238C350.749 270.123 347.809 270.831 346.067 271.266C344.433 271.648 343.617 276.275 347.047 278.453C354.995 283.516 365.883 277.636 368.388 263.862Z" fill="url(#paint66_linear_489_3673)"/>
<path d="M366.23 272.173C368.233 269.772 368.173 266.421 366.096 264.687C364.018 262.953 360.709 263.494 358.706 265.895C356.702 268.296 356.763 271.647 358.84 273.381C360.918 275.115 364.226 274.574 366.23 272.173Z" fill="white"/>
<path d="M366.047 265.931C370.239 267.129 379.494 272.355 374.213 281.719C368.878 291.083 365.393 291.682 369.204 297.943C373.015 304.204 369.912 311.39 361.201 310.138C350.477 308.613 342.474 301.482 346.557 288.797C349.442 279.923 355.921 277.963 358.969 275.84C362.018 273.716 360.004 272.845 360.385 269.416C360.82 265.605 364.522 265.496 366.047 265.931Z" fill="url(#paint67_linear_489_3673)"/>
<path d="M273.17 263.808C273.932 265.877 279.321 276.928 281.826 281.338C283.622 284.496 287.052 295.765 295.218 324.456C298.975 337.685 316.287 331.206 309.918 317.923C301.37 300.066 291.353 280.358 291.135 277.854C290.917 275.349 292.986 270.722 293.476 268.816C293.966 267.02 294.456 265.55 293.803 264.733C293.15 263.917 291.68 265.985 290.972 267.292C290.264 268.599 289.23 270.286 288.794 268.925C288.794 268.925 285.746 260.324 284.929 257.983C284.112 255.642 281.662 256.73 282.316 258.908C282.969 261.14 284.929 268 284.929 268C284.929 268 281.227 258.255 280.41 256.186C279.594 254.117 276.926 255.261 277.743 257.656C278.559 260.106 281.935 268.871 281.935 268.871C281.935 268.871 279.049 262.229 277.688 259.289C276.654 257.057 274.313 258.037 275.238 260.65C276.436 263.917 278.995 270.341 278.995 270.341C278.995 270.341 276.545 265.06 275.293 262.719C274.476 261.249 272.407 261.685 273.17 263.808Z" fill="url(#paint68_linear_489_3673)"/>
<path d="M289.664 305.945C289.664 305.945 292.114 315.745 295.38 326.307C298.865 337.576 318.899 333.711 310.842 317.923C302.186 300.937 301.859 300.392 301.859 300.392C301.859 300.392 294.4 300.066 289.664 305.945Z" fill="url(#paint69_linear_489_3673)"/>
<path d="M298.157 315.854C311.767 304.421 320.478 295.819 329.134 290.375C339.315 283.951 351.292 298.868 340.567 308.94C331.802 317.16 319.117 325.544 311.549 330.39C299.409 338.229 288.63 323.857 298.157 315.854Z" fill="url(#paint70_linear_489_3673)"/>
<circle opacity="0.1" cx="486.285" cy="333.285" r="16.2853" fill="#6B86FD"/>
<circle opacity="0.4" cx="368.5" cy="55.5" r="7.5" fill="#6B86FD"/>
<circle opacity="0.7" cx="5.5" cy="120.5" r="5.5" fill="#FFD273"/>
<defs>
<linearGradient id="paint0_linear_489_3673" x1="207.98" y1="488.433" x2="207.98" y2="310.561" gradientUnits="userSpaceOnUse">
<stop stop-color="white"/>
<stop offset="1" stop-color="#AEBDDF"/>
</linearGradient>
<linearGradient id="paint1_linear_489_3673" x1="102.961" y1="310.84" x2="199.931" y2="285.491" gradientUnits="userSpaceOnUse">
<stop stop-color="white"/>
<stop offset="1" stop-color="#AEBDDF"/>
</linearGradient>
<linearGradient id="paint2_linear_489_3673" x1="133.513" y1="302.569" x2="123.801" y2="265.416" gradientUnits="userSpaceOnUse">
<stop stop-color="white"/>
<stop offset="1" stop-color="#AEBDDF"/>
</linearGradient>
<linearGradient id="paint3_linear_489_3673" x1="102.275" y1="267.608" x2="98.9108" y2="254.739" gradientUnits="userSpaceOnUse">
<stop stop-color="white"/>
<stop offset="1" stop-color="#AEBDDF"/>
</linearGradient>
<linearGradient id="paint4_linear_489_3673" x1="184.359" y1="315.537" x2="184.359" y2="429.889" gradientUnits="userSpaceOnUse">
<stop stop-color="#ACBDDE"/>
<stop offset="1" stop-color="#2E405C"/>
</linearGradient>
<linearGradient id="paint5_linear_489_3673" x1="195.056" y1="254.909" x2="195.056" y2="393.098" gradientUnits="userSpaceOnUse">
<stop stop-color="#ACBDDE"/>
<stop offset="1" stop-color="#2E405C"/>
</linearGradient>
<linearGradient id="paint6_linear_489_3673" x1="184.358" y1="205.341" x2="184.358" y2="363.32" gradientUnits="userSpaceOnUse">
<stop stop-color="#ACBDDE"/>
<stop offset="1" stop-color="#2E405C"/>
</linearGradient>
<linearGradient id="paint7_linear_489_3673" x1="172.52" y1="286.43" x2="169.156" y2="273.561" gradientUnits="userSpaceOnUse">
<stop stop-color="white"/>
<stop offset="1" stop-color="#AEBDDF"/>
</linearGradient>
<linearGradient id="paint8_linear_489_3673" x1="119.805" y1="244.992" x2="119.805" y2="532.23" gradientUnits="userSpaceOnUse">
<stop stop-color="#ACBDDE"/>
<stop offset="1" stop-color="#2E405C"/>
</linearGradient>
<linearGradient id="paint9_linear_489_3673" x1="184.358" y1="183.88" x2="184.358" y2="332.318" gradientUnits="userSpaceOnUse">
<stop stop-color="white"/>
<stop offset="1" stop-color="#AEBDDF"/>
</linearGradient>
<linearGradient id="paint10_linear_489_3673" x1="173.661" y1="331.269" x2="173.661" y2="186.72" gradientUnits="userSpaceOnUse">
<stop stop-color="white"/>
<stop offset="1" stop-color="#AEBDDF"/>
</linearGradient>
<linearGradient id="paint11_linear_489_3673" x1="184.36" y1="231.571" x2="184.36" y2="105.565" gradientUnits="userSpaceOnUse">
<stop stop-color="white"/>
<stop offset="1" stop-color="#AEBDDF"/>
</linearGradient>
<linearGradient id="paint12_linear_489_3673" x1="141.393" y1="204.09" x2="141.393" y2="85.6088" gradientUnits="userSpaceOnUse">
<stop stop-color="white"/>
<stop offset="1" stop-color="#AEBDDF"/>
</linearGradient>
<linearGradient id="paint13_linear_489_3673" x1="109.108" y1="114.239" x2="109.108" y2="507.828" gradientUnits="userSpaceOnUse">
<stop stop-color="white"/>
<stop offset="1" stop-color="#AEBDDF"/>
</linearGradient>
<linearGradient id="paint14_linear_489_3673" x1="236.469" y1="230.231" x2="306.452" y2="226.163" gradientUnits="userSpaceOnUse">
<stop stop-color="white"/>
<stop offset="1" stop-color="#AEBDDF"/>
</linearGradient>
<linearGradient id="paint15_linear_489_3673" x1="195.73" y1="288.45" x2="195.73" y2="103.46" gradientUnits="userSpaceOnUse">
<stop stop-color="#ACBDDE"/>
<stop offset="1" stop-color="#2E405C"/>
</linearGradient>
<linearGradient id="paint16_linear_489_3673" x1="245.514" y1="235.604" x2="300.09" y2="261.501" gradientUnits="userSpaceOnUse">
<stop stop-color="#ACBDDE"/>
<stop offset="1" stop-color="#2E405C"/>
</linearGradient>
<linearGradient id="paint17_linear_489_3673" x1="179.088" y1="251.408" x2="243.877" y2="247.642" gradientUnits="userSpaceOnUse">
<stop stop-color="white"/>
<stop offset="1" stop-color="#AEBDDF"/>
</linearGradient>
<linearGradient id="paint18_linear_489_3673" x1="159.908" y1="288.45" x2="159.908" y2="103.46" gradientUnits="userSpaceOnUse">
<stop stop-color="#ACBDDE"/>
<stop offset="1" stop-color="#2E405C"/>
</linearGradient>
<linearGradient id="paint19_linear_489_3673" x1="176.109" y1="248.499" x2="224.06" y2="282.306" gradientUnits="userSpaceOnUse">
<stop stop-color="#ACBDDE"/>
<stop offset="1" stop-color="#2E405C"/>
</linearGradient>
<linearGradient id="paint20_linear_489_3673" x1="196.118" y1="146.955" x2="196.118" y2="24.1598" gradientUnits="userSpaceOnUse">
<stop stop-color="#FFD2BB"/>
<stop offset="1" stop-color="#FF6B5A"/>
</linearGradient>
<linearGradient id="paint21_linear_489_3673" x1="189.195" y1="14.2787" x2="189.195" y2="155.571" gradientUnits="userSpaceOnUse">
<stop stop-color="white"/>
<stop offset="1" stop-color="#AEBDDF"/>
</linearGradient>
<linearGradient id="paint22_linear_489_3673" x1="224.911" y1="146.955" x2="224.911" y2="24.1597" gradientUnits="userSpaceOnUse">
<stop stop-color="#FFD2BB"/>
<stop offset="1" stop-color="#FF6B5A"/>
</linearGradient>
<linearGradient id="paint23_linear_489_3673" x1="158.314" y1="14.2786" x2="158.314" y2="155.571" gradientUnits="userSpaceOnUse">
<stop stop-color="white"/>
<stop offset="1" stop-color="#AEBDDF"/>
</linearGradient>
<linearGradient id="paint24_linear_489_3673" x1="167.521" y1="49.6873" x2="167.692" y2="26.3606" gradientUnits="userSpaceOnUse">
<stop stop-color="white"/>
<stop offset="1" stop-color="#AEBDDF"/>
</linearGradient>
<linearGradient id="paint25_linear_489_3673" x1="167.612" y1="59.5823" x2="167.612" y2="-24.1164" gradientUnits="userSpaceOnUse">
<stop stop-color="#FFD2BB"/>
<stop offset="1" stop-color="#FF6B5A"/>
</linearGradient>
<linearGradient id="paint26_linear_489_3673" x1="171.881" y1="58.509" x2="171.881" y2="25.7003" gradientUnits="userSpaceOnUse">
<stop stop-color="#FFD2BB"/>
<stop offset="1" stop-color="#FF6B5A"/>
</linearGradient>
<linearGradient id="paint27_linear_489_3673" x1="173.351" y1="59.5823" x2="173.351" y2="-24.1163" gradientUnits="userSpaceOnUse">
<stop stop-color="#FFD2BB"/>
<stop offset="1" stop-color="#FF6B5A"/>
</linearGradient>
<linearGradient id="paint28_linear_489_3673" x1="173.564" y1="-39.4054" x2="173.564" y2="21.312" gradientUnits="userSpaceOnUse">
<stop stop-color="#ACBDDE"/>
<stop offset="1" stop-color="#2E405C"/>
</linearGradient>
<linearGradient id="paint29_linear_489_3673" x1="167.952" y1="156.919" x2="167.952" y2="46.4921" gradientUnits="userSpaceOnUse">
<stop stop-color="#FFD2BB"/>
<stop offset="1" stop-color="#FF6B5A"/>
</linearGradient>
<linearGradient id="paint30_linear_489_3673" x1="147.457" y1="156.919" x2="146.145" y2="46.5034" gradientUnits="userSpaceOnUse">
<stop stop-color="#FFD2BB"/>
<stop offset="1" stop-color="#FF6B5A"/>
</linearGradient>
<linearGradient id="paint31_linear_489_3673" x1="147.098" y1="14.2773" x2="148.777" y2="155.555" gradientUnits="userSpaceOnUse">
<stop stop-color="white"/>
<stop offset="1" stop-color="#AEBDDF"/>
</linearGradient>
<linearGradient id="paint32_linear_489_3673" x1="307.218" y1="391.737" x2="203.792" y2="391.737" gradientUnits="userSpaceOnUse">
<stop stop-color="#FFEFA4"/>
<stop offset="1" stop-color="#FE8F01"/>
</linearGradient>
<linearGradient id="paint33_linear_489_3673" x1="304.104" y1="284.115" x2="199.732" y2="311.399" gradientUnits="userSpaceOnUse">
<stop stop-color="#FFEFA4"/>
<stop offset="1" stop-color="#FE8F01"/>
</linearGradient>
<linearGradient id="paint34_linear_489_3673" x1="323.62" y1="216.233" x2="323.62" y2="487.98" gradientUnits="userSpaceOnUse">
<stop stop-color="#FFEFA4"/>
<stop offset="1" stop-color="#FE8F01"/>
</linearGradient>
<linearGradient id="paint35_linear_489_3673" x1="309.994" y1="229.307" x2="317.982" y2="352.202" gradientUnits="userSpaceOnUse">
<stop stop-color="#FFEFA4"/>
<stop offset="1" stop-color="#FE8F01"/>
</linearGradient>
<linearGradient id="paint36_linear_489_3673" x1="287.438" y1="360.462" x2="287.438" y2="245.748" gradientUnits="userSpaceOnUse">
<stop stop-color="#FFEFA4"/>
<stop offset="1" stop-color="#FE8F01"/>
</linearGradient>
<linearGradient id="paint37_linear_489_3673" x1="254.253" y1="245.631" x2="254.253" y2="659.772" gradientUnits="userSpaceOnUse">
<stop stop-color="#FFEFA4"/>
<stop offset="1" stop-color="#FE8F01"/>
</linearGradient>
<linearGradient id="paint38_linear_489_3673" x1="274.128" y1="192.505" x2="274.128" y2="260.977" gradientUnits="userSpaceOnUse">
<stop stop-color="#3747FF"/>
<stop offset="1" stop-color="#3747FF"/>
</linearGradient>
<linearGradient id="paint39_linear_489_3673" x1="268.049" y1="96.6382" x2="295.495" y2="180.617" gradientUnits="userSpaceOnUse">
<stop stop-color="#3747FF"/>
<stop offset="1" stop-color="#F5F6FF"/>
</linearGradient>
<linearGradient id="paint40_linear_489_3673" x1="340.38" y1="85.0015" x2="350.826" y2="345.54" gradientUnits="userSpaceOnUse">
<stop stop-color="#B9BFFF"/>
<stop offset="1" stop-color="#3747FF"/>
</linearGradient>
<linearGradient id="paint41_linear_489_3673" x1="312.875" y1="139.146" x2="197.354" y2="453.144" gradientUnits="userSpaceOnUse">
<stop stop-color="#404FFF"/>
<stop offset="1" stop-color="#F8F8FF"/>
</linearGradient>
<linearGradient id="paint42_linear_489_3673" x1="68.7667" y1="420.709" x2="58.1158" y2="476.148" gradientUnits="userSpaceOnUse">
<stop stop-color="#ACBDDE" stop-opacity="0"/>
<stop offset="1" stop-color="#2E405C"/>
</linearGradient>
<linearGradient id="paint43_linear_489_3673" x1="117.828" y1="258.869" x2="117.828" y2="23.7499" gradientUnits="userSpaceOnUse">
<stop stop-color="#ACBDDE" stop-opacity="0"/>
<stop offset="1" stop-color="#2E405C"/>
</linearGradient>
<linearGradient id="paint44_linear_489_3673" x1="81.6546" y1="189.688" x2="136.769" y2="189.688" gradientUnits="userSpaceOnUse">
<stop stop-color="#5D6E8C"/>
<stop offset="1" stop-color="#2E405C"/>
</linearGradient>
<linearGradient id="paint45_linear_489_3673" x1="65.868" y1="244.557" x2="120.982" y2="244.557" gradientUnits="userSpaceOnUse">
<stop stop-color="#5D6E8C"/>
<stop offset="1" stop-color="#2E405C"/>
</linearGradient>
<linearGradient id="paint46_linear_489_3673" x1="50.0806" y1="299.426" x2="105.195" y2="299.426" gradientUnits="userSpaceOnUse">
<stop stop-color="#5D6E8C"/>
<stop offset="1" stop-color="#2E405C"/>
</linearGradient>
<linearGradient id="paint47_linear_489_3673" x1="34.293" y1="354.295" x2="89.407" y2="354.295" gradientUnits="userSpaceOnUse">
<stop stop-color="#5D6E8C"/>
<stop offset="1" stop-color="#2E405C"/>
</linearGradient>
<linearGradient id="paint48_linear_489_3673" x1="18.5057" y1="409.163" x2="73.6197" y2="409.163" gradientUnits="userSpaceOnUse">
<stop stop-color="#5D6E8C"/>
<stop offset="1" stop-color="#2E405C"/>
</linearGradient>
<linearGradient id="paint49_linear_489_3673" x1="59.5616" y1="306.08" x2="145.385" y2="306.08" gradientUnits="userSpaceOnUse">
<stop stop-color="#5D6E8C"/>
<stop offset="1" stop-color="#2E405C"/>
</linearGradient>
<linearGradient id="paint50_linear_489_3673" x1="9.89219" y1="292.772" x2="95.7151" y2="292.772" gradientUnits="userSpaceOnUse">
<stop stop-color="#5D6E8C"/>
<stop offset="1" stop-color="#2E405C"/>
</linearGradient>
<linearGradient id="paint51_linear_489_3673" x1="376.377" y1="265.443" x2="376.377" y2="400.26" gradientUnits="userSpaceOnUse">
<stop stop-color="white"/>
<stop offset="1" stop-color="#AEBDDF"/>
</linearGradient>
<linearGradient id="paint52_linear_489_3673" x1="354.56" y1="181.932" x2="398.742" y2="326.347" gradientUnits="userSpaceOnUse">
<stop stop-color="#FFD2BB"/>
<stop offset="1" stop-color="#FF6B5A"/>
</linearGradient>
<linearGradient id="paint53_linear_489_3673" x1="388.014" y1="265.442" x2="388.014" y2="400.26" gradientUnits="userSpaceOnUse">
<stop stop-color="white"/>
<stop offset="1" stop-color="#AEBDDF"/>
</linearGradient>
<linearGradient id="paint54_linear_489_3673" x1="379.989" y1="485.735" x2="441.686" y2="449.103" gradientUnits="userSpaceOnUse">
<stop stop-color="#FFD2BB"/>
<stop offset="1" stop-color="#FF6B5A"/>
</linearGradient>
<linearGradient id="paint55_linear_489_3673" x1="381.404" y1="574.693" x2="381.404" y2="360.863" gradientUnits="userSpaceOnUse">
<stop stop-color="#ACBDDE"/>
<stop offset="1" stop-color="#2E405C"/>
</linearGradient>
<linearGradient id="paint56_linear_489_3673" x1="415.039" y1="455.112" x2="415.039" y2="500.563" gradientUnits="userSpaceOnUse">
<stop stop-color="white"/>
<stop offset="1" stop-color="#AEBDDF"/>
</linearGradient>
<linearGradient id="paint57_linear_489_3673" x1="407.196" y1="498.865" x2="443.545" y2="442.243" gradientUnits="userSpaceOnUse">
<stop stop-color="#ACBDDE"/>
<stop offset="1" stop-color="#2E405C"/>
</linearGradient>
<linearGradient id="paint58_linear_489_3673" x1="395.474" y1="494.402" x2="337.084" y2="494.402" gradientUnits="userSpaceOnUse">
<stop stop-color="white" stop-opacity="0"/>
<stop offset="1" stop-color="#AEBDDF"/>
</linearGradient>
<linearGradient id="paint59_linear_489_3673" x1="301.024" y1="473.439" x2="369.567" y2="485.996" gradientUnits="userSpaceOnUse">
<stop stop-color="#FFD2BB"/>
<stop offset="1" stop-color="#FF6B5A"/>
</linearGradient>
<linearGradient id="paint60_linear_489_3673" x1="348.508" y1="511.884" x2="348.508" y2="357.417" gradientUnits="userSpaceOnUse">
<stop stop-color="#ACBDDE"/>
<stop offset="1" stop-color="#2E405C"/>
</linearGradient>
<linearGradient id="paint61_linear_489_3673" x1="328.809" y1="479.824" x2="328.809" y2="514.477" gradientUnits="userSpaceOnUse">
<stop stop-color="white"/>
<stop offset="1" stop-color="#AEBDDF"/>
</linearGradient>
<linearGradient id="paint62_linear_489_3673" x1="312.376" y1="491.486" x2="383.845" y2="509.83" gradientUnits="userSpaceOnUse">
<stop stop-color="#ACBDDE"/>
<stop offset="1" stop-color="#2E405C"/>
</linearGradient>
<linearGradient id="paint63_linear_489_3673" x1="351.315" y1="292.64" x2="351.315" y2="272.039" gradientUnits="userSpaceOnUse">
<stop stop-color="#FFD2BB"/>
<stop offset="1" stop-color="#FF6B5A"/>
</linearGradient>
<linearGradient id="paint64_linear_489_3673" x1="353.866" y1="265.443" x2="353.866" y2="400.26" gradientUnits="userSpaceOnUse">
<stop stop-color="white"/>
<stop offset="1" stop-color="#AEBDDF"/>
</linearGradient>
<linearGradient id="paint65_linear_489_3673" x1="341.144" y1="251.503" x2="364.288" y2="280.719" gradientUnits="userSpaceOnUse">
<stop stop-color="#FFD2BB"/>
<stop offset="1" stop-color="#FF6B5A"/>
</linearGradient>
<linearGradient id="paint66_linear_489_3673" x1="353.688" y1="219.641" x2="353.688" y2="272.757" gradientUnits="userSpaceOnUse">
<stop stop-color="#ACBDDE"/>
<stop offset="1" stop-color="#2E405C"/>
</linearGradient>
<linearGradient id="paint67_linear_489_3673" x1="360.595" y1="227.31" x2="360.595" y2="303.434" gradientUnits="userSpaceOnUse">
<stop stop-color="#ACBDDE"/>
<stop offset="1" stop-color="#2E405C"/>
</linearGradient>
<linearGradient id="paint68_linear_489_3673" x1="258.655" y1="222.222" x2="325.691" y2="358.119" gradientUnits="userSpaceOnUse">
<stop stop-color="#FFD2BB"/>
<stop offset="1" stop-color="#FF6B5A"/>
</linearGradient>
<linearGradient id="paint69_linear_489_3673" x1="301.169" y1="265.443" x2="301.169" y2="400.26" gradientUnits="userSpaceOnUse">
<stop stop-color="white"/>
<stop offset="1" stop-color="#AEBDDF"/>
</linearGradient>
<linearGradient id="paint70_linear_489_3673" x1="319.629" y1="265.443" x2="319.629" y2="400.26" gradientUnits="userSpaceOnUse">
<stop stop-color="white"/>
<stop offset="1" stop-color="#AEBDDF"/>
</linearGradient>
</defs>
</svg>
