<svg width="484" height="601" viewBox="0 0 484 601" fill="none" xmlns="http://www.w3.org/2000/svg">
<circle opacity="0.1" cx="110.285" cy="120.285" r="16.2853" fill="#6B86FD"/>
<circle opacity="0.4" cx="476.5" cy="40.5" r="7.5" fill="#6B86FD"/>
<circle opacity="0.7" cx="476.5" cy="347.5" r="5.5" fill="#FFD273"/>
<path d="M262.848 444.825H467V495.39H381.38L262.848 444.825Z" fill="url(#paint0_linear_489_3492)"/>
<path d="M214.994 4.11471C218.336 3.23203 221.993 3.23203 225.839 4.24081L370.535 43.0157C386.865 47.3661 400.105 68.9917 400.105 91.1848V462.289C400.105 479.312 392.35 491.796 381.379 494.759L394.115 491.354C405.086 488.391 412.841 475.907 412.841 458.884V87.7802C412.841 65.524 399.6 43.9614 383.271 39.6111L238.511 0.773134C234.665 -0.235644 231.072 -0.235644 227.667 0.647037L214.994 4.11471Z" fill="url(#paint1_linear_489_3492)"/>
<path d="M214.994 4.11475C204.024 7.07804 196.269 19.5617 196.269 36.5848V407.689C196.269 429.945 209.509 451.508 225.838 455.858L370.535 494.633C374.381 495.642 377.975 495.642 381.379 494.759C392.35 491.796 400.105 479.312 400.105 462.289V91.1849C400.105 68.9287 386.865 47.3661 370.535 43.0157L225.838 4.1778C221.992 3.16902 218.336 3.16902 214.994 4.11475Z" fill="url(#paint2_linear_489_3492)"/>
<path d="M216.886 11.4916C219.597 10.735 222.624 10.735 225.713 11.6176L370.725 50.4556C384.028 54.0494 394.809 71.6399 394.809 89.7979V461.091C394.809 475.025 388.441 485.176 379.488 487.572C376.777 488.328 373.751 488.328 370.662 487.445L225.65 448.608C212.347 445.014 201.565 427.423 201.565 409.265V37.972C201.565 24.1013 207.933 13.8874 216.886 11.4916Z" fill="url(#paint3_linear_489_3492)"/>
<path d="M272.746 48.8791C272.998 48.8161 273.313 48.8161 273.629 48.8791L310.575 58.7778C311.899 59.1561 312.971 60.8584 312.971 62.6868C312.971 64.0738 312.34 65.0826 311.458 65.3348C311.206 65.3979 310.89 65.3979 310.575 65.3348L273.629 55.4362C272.305 55.0579 271.233 53.3556 271.233 51.5272C271.233 50.0771 271.863 49.0683 272.746 48.8791Z" fill="white"/>
<path d="M221.994 33.3062C222.435 33.1801 222.94 33.4323 223.318 33.9997C223.822 34.7563 223.822 35.8281 223.318 36.3325L220.229 39.7371L223.318 44.781C223.822 45.5376 223.822 46.6094 223.318 47.1138C223.192 47.2399 223.066 47.303 222.877 47.366C222.751 47.4291 222.561 47.4291 222.435 47.366C222.12 47.303 221.805 47.0508 221.553 46.6725L217.581 40.1785C217.076 39.4219 217.076 38.3501 217.581 37.8457L221.553 33.4953C221.742 33.4323 221.868 33.3692 221.994 33.3062Z" fill="white"/>
<path d="M414.543 153.288C413.976 153.099 413.282 153.099 412.652 153.288C409.752 154.044 407.419 157.89 407.419 161.799V205.807C407.419 208.834 408.806 211.04 410.76 211.545L406.851 210.473C404.897 209.969 403.51 207.762 403.51 204.736V160.791C403.51 156.882 405.843 153.036 408.743 152.279C409.436 152.09 410.067 152.09 410.634 152.279L414.543 153.288Z" fill="url(#paint4_linear_489_3492)"/>
<path d="M414.544 153.288C416.498 153.792 417.885 155.999 417.885 159.025V203.033C417.885 206.942 415.552 210.788 412.652 211.545C411.959 211.734 411.328 211.734 410.761 211.545C408.806 211.04 407.419 208.834 407.419 205.807V161.799C407.419 157.89 409.752 154.044 412.652 153.288C413.346 153.099 413.976 153.162 414.544 153.288Z" fill="url(#paint5_linear_489_3492)"/>
<path d="M185.301 64.5785C186.625 64.2002 188.075 64.2002 189.589 64.6415L349.543 107.515C356.037 109.28 361.333 117.855 361.333 126.744V250.635C361.333 257.444 358.244 262.425 353.893 263.56C352.569 263.938 351.119 263.938 349.606 263.497L189.652 220.624C183.158 218.858 177.862 210.284 177.862 201.394V77.5034C177.798 70.6942 180.951 65.7134 185.301 64.5785Z" fill="url(#paint6_linear_489_3492)"/>
<path d="M349.542 107.452L189.588 64.5785C188.074 64.2002 186.624 64.2002 185.3 64.5154C180.95 65.7133 177.86 70.6311 177.86 77.4404V90.4284L361.332 139.606V126.618C361.332 117.791 356.036 109.217 349.542 107.452Z" fill="url(#paint7_linear_489_3492)"/>
<path d="M187.444 71.8922C187.697 71.8291 188.012 71.8291 188.264 71.8922L351.497 115.648C352.758 115.963 353.767 117.665 353.767 119.368V128.951C353.767 130.275 353.136 131.221 352.316 131.473C352.064 131.536 351.749 131.536 351.497 131.473L188.264 87.7174C187.003 87.4022 185.994 85.6998 185.994 83.9975V74.4141C185.994 73.0901 186.562 72.1444 187.444 71.8922Z" fill="url(#paint8_linear_489_3492)"/>
<path d="M345.257 117.035C345.698 116.909 346.14 116.909 346.644 117.035C348.788 117.602 350.49 120.44 350.49 123.277C350.49 125.483 349.481 127.123 348.031 127.501C347.59 127.627 347.148 127.627 346.644 127.501C344.5 126.934 342.798 124.096 342.798 121.259C342.798 119.052 343.807 117.413 345.257 117.035Z" fill="white"/>
<path d="M346.517 118.8C346.58 118.8 346.58 118.8 346.643 118.8C346.832 118.863 347.021 119.116 347.021 119.368V121.827L348.849 122.331C349.039 122.394 349.228 122.646 349.228 122.899C349.228 123.088 349.102 123.277 348.976 123.277C348.912 123.277 348.912 123.277 348.849 123.277L347.021 122.772V125.231C347.021 125.42 346.895 125.61 346.769 125.61C346.706 125.61 346.706 125.61 346.643 125.61C346.454 125.547 346.264 125.294 346.264 125.042V122.583L344.436 122.079C344.247 122.016 344.058 121.764 344.058 121.511C344.058 121.322 344.184 121.133 344.31 121.133C344.373 121.133 344.373 121.133 344.436 121.133L346.264 121.638V119.179C346.327 118.99 346.391 118.863 346.517 118.8Z" fill="url(#paint9_linear_489_3492)"/>
<path d="M213.986 117.476C214.175 117.413 214.364 117.413 214.617 117.476L343.74 152.027C344.686 152.279 345.442 153.54 345.442 154.801C345.442 155.81 345.001 156.503 344.371 156.692C344.182 156.755 343.992 156.755 343.74 156.692L214.617 122.142C213.671 121.89 212.914 120.629 212.914 119.368C212.914 118.359 213.356 117.665 213.986 117.476Z" fill="url(#paint10_linear_489_3492)"/>
<path opacity="0.1" d="M194.568 107.017C195.262 106.828 196.018 106.828 196.838 107.017C200.305 107.963 203.08 112.502 203.08 117.231C203.08 120.825 201.44 123.473 199.108 124.103C198.414 124.293 197.657 124.293 196.838 124.103C193.37 123.158 190.596 118.618 190.596 113.89C190.596 110.233 192.235 107.648 194.568 107.017Z" fill="#3747FF"/>
<path d="M193.938 113.764C194.127 113.701 194.379 113.827 194.569 114.142L196.082 116.538L199.045 112.944C199.108 112.881 199.171 112.818 199.297 112.818C199.486 112.755 199.739 112.881 199.928 113.133C200.18 113.511 200.18 114.016 199.991 114.268L196.586 118.366C196.523 118.429 196.46 118.492 196.334 118.492C196.271 118.492 196.145 118.492 196.145 118.492C195.956 118.429 195.83 118.303 195.703 118.114L193.749 114.962C193.497 114.583 193.497 114.079 193.749 113.827C193.812 113.827 193.875 113.764 193.938 113.764Z" fill="white"/>
<path d="M193.938 113.315C194.127 113.252 194.379 113.378 194.568 113.693L196.082 116.089L199.045 112.495C199.108 112.432 199.171 112.369 199.297 112.369C199.486 112.306 199.738 112.432 199.928 112.685C200.18 113.063 200.18 113.567 199.991 113.819L196.586 117.918C196.523 117.981 196.46 118.044 196.334 118.044C196.271 118.044 196.145 118.044 196.145 118.044C195.956 117.981 195.829 117.855 195.703 117.665L193.749 114.513C193.497 114.135 193.497 113.63 193.749 113.378C193.812 113.378 193.875 113.315 193.938 113.315Z" fill="#3747FF"/>
<path d="M213.986 146.605C214.175 146.542 214.364 146.542 214.616 146.605L343.74 181.155C344.686 181.407 345.442 182.668 345.442 183.929C345.442 184.938 345.001 185.632 344.37 185.821C344.181 185.884 343.992 185.884 343.74 185.821L214.616 151.27C213.671 151.018 212.914 149.757 212.914 148.496C212.914 147.55 213.355 146.794 213.986 146.605Z" fill="url(#paint11_linear_489_3492)"/>
<path opacity="0.1" d="M194.568 136.017C195.261 135.828 196.018 135.828 196.838 136.017C200.305 136.963 203.079 141.502 203.079 146.231C203.079 149.825 201.44 152.473 199.107 153.103C198.414 153.293 197.657 153.293 196.838 153.103C193.37 152.158 190.596 147.618 190.596 142.89C190.596 139.233 192.235 136.648 194.568 136.017Z" fill="#3747FF"/>
<path d="M193.938 142.764C194.127 142.701 194.379 142.827 194.568 143.142L196.082 145.538L199.045 141.944C199.108 141.881 199.171 141.818 199.297 141.818C199.486 141.755 199.738 141.881 199.927 142.133C200.18 142.511 200.18 143.016 199.991 143.268L196.586 147.366C196.523 147.429 196.46 147.492 196.334 147.492C196.271 147.492 196.145 147.492 196.145 147.492C195.955 147.429 195.829 147.303 195.703 147.114L193.749 143.962C193.497 143.583 193.497 143.079 193.749 142.827C193.812 142.827 193.875 142.764 193.938 142.764Z" fill="white"/>
<path d="M193.938 142.444C194.127 142.38 194.379 142.507 194.568 142.822L196.081 145.218L199.045 141.624C199.108 141.561 199.171 141.498 199.297 141.498C199.486 141.435 199.738 141.561 199.927 141.813C200.18 142.191 200.18 142.696 199.99 142.948L196.586 147.046C196.523 147.109 196.46 147.172 196.334 147.172C196.271 147.172 196.144 147.172 196.144 147.172C195.955 147.109 195.829 146.983 195.703 146.794L193.749 143.641C193.496 143.263 193.496 142.759 193.749 142.507C193.812 142.507 193.875 142.444 193.938 142.444Z" fill="#3747FF"/>
<path d="M213.986 175.796C214.175 175.733 214.364 175.733 214.616 175.796L343.74 210.347C344.686 210.599 345.442 211.86 345.442 213.121C345.442 214.13 345.001 214.823 344.37 215.013C344.181 215.076 343.992 215.076 343.74 215.013L214.616 180.462C213.671 180.21 212.914 178.949 212.914 177.688C212.914 176.679 213.355 175.922 213.986 175.796Z" fill="url(#paint12_linear_489_3492)"/>
<path opacity="0.1" d="M194.568 165.017C195.261 164.828 196.018 164.828 196.838 165.017C200.305 165.963 203.079 170.503 203.079 175.231C203.079 178.825 201.44 181.473 199.107 182.103C198.414 182.293 197.657 182.293 196.838 182.103C193.37 181.158 190.596 176.618 190.596 171.89C190.596 168.233 192.235 165.648 194.568 165.017Z" fill="#3747FF"/>
<path d="M193.938 171.764C194.127 171.701 194.379 171.827 194.568 172.142L196.082 174.538L199.045 170.944C199.108 170.881 199.171 170.818 199.297 170.818C199.486 170.755 199.738 170.881 199.927 171.133C200.18 171.511 200.18 172.016 199.991 172.268L196.586 176.366C196.523 176.429 196.46 176.492 196.334 176.492C196.271 176.492 196.145 176.492 196.145 176.492C195.955 176.429 195.829 176.303 195.703 176.114L193.749 172.962C193.497 172.583 193.497 172.079 193.749 171.827C193.812 171.827 193.875 171.764 193.938 171.764Z" fill="white"/>
<path d="M193.938 171.572C194.127 171.509 194.379 171.635 194.568 171.95L196.081 174.346L199.045 170.752C199.108 170.689 199.171 170.626 199.297 170.626C199.486 170.563 199.738 170.689 199.927 170.942C200.18 171.32 200.18 171.824 199.99 172.076L196.586 176.175C196.523 176.238 196.46 176.301 196.334 176.301C196.271 176.301 196.144 176.301 196.144 176.301C195.955 176.238 195.829 176.112 195.703 175.922L193.749 172.77C193.496 172.392 193.496 171.887 193.749 171.635C193.812 171.635 193.875 171.635 193.938 171.572Z" fill="#3747FF"/>
<path d="M213.986 204.925C214.175 204.862 214.364 204.862 214.616 204.925L343.74 239.475C344.686 239.727 345.442 240.988 345.442 242.249C345.442 243.258 345.001 243.952 344.37 244.141C344.181 244.204 343.992 244.204 343.74 244.141L214.616 209.59C213.671 209.338 212.914 208.077 212.914 206.816C212.914 205.807 213.355 205.114 213.986 204.925Z" fill="url(#paint13_linear_489_3492)"/>
<path opacity="0.1" d="M194.568 194.017C195.261 193.828 196.018 193.828 196.838 194.017C200.305 194.963 203.079 199.502 203.079 204.231C203.079 207.825 201.44 210.473 199.107 211.103C198.414 211.293 197.657 211.293 196.838 211.103C193.37 210.158 190.596 205.618 190.596 200.89C190.596 197.233 192.235 194.648 194.568 194.017Z" fill="#3747FF"/>
<path d="M193.938 200.764C194.127 200.701 194.379 200.827 194.568 201.142L196.082 203.538L199.045 199.944C199.108 199.881 199.171 199.818 199.297 199.818C199.486 199.755 199.738 199.881 199.927 200.133C200.18 200.511 200.18 201.016 199.991 201.268L196.586 205.366C196.523 205.429 196.46 205.492 196.334 205.492C196.271 205.492 196.145 205.492 196.145 205.492C195.955 205.429 195.829 205.303 195.703 205.114L193.749 201.961C193.497 201.583 193.497 201.079 193.749 200.827C193.812 200.827 193.875 200.764 193.938 200.764Z" fill="#3747FF"/>
<path d="M176.977 514.619H107.371V526.662H176.977V514.619Z" fill="url(#paint14_linear_489_3492)"/>
<path d="M101.066 325.474C101.066 325.915 101.76 326.419 103.084 326.735C105.732 327.428 110.019 327.428 112.667 326.735C113.991 326.356 114.685 325.915 114.685 325.474V524.833C114.685 525.275 113.991 525.779 112.667 526.094C110.019 526.788 105.732 526.788 103.084 526.094C101.76 525.716 101.066 525.275 101.066 524.833V325.474Z" fill="url(#paint15_linear_489_3492)"/>
<path d="M0.000244141 311.54C0.000244141 318.916 10.5294 326.356 31.5876 331.967C73.7041 343.253 141.986 343.253 184.102 331.967C205.16 326.293 215.69 318.916 215.69 311.54V316.205C215.69 323.582 205.16 331.022 184.102 336.633C141.986 347.919 73.7041 347.919 31.5876 336.633C10.5294 330.959 0.000244141 323.582 0.000244141 316.142V311.54Z" fill="url(#paint16_linear_489_3492)"/>
<path d="M0 311.54C0 304.163 10.5291 296.723 31.5874 291.112C73.7038 279.826 141.985 279.826 184.102 291.112C205.16 296.787 215.689 304.163 215.689 311.54C215.689 318.917 205.16 326.356 184.102 331.968C141.985 343.253 73.7038 343.253 31.5874 331.968C10.5291 326.356 0 318.917 0 311.54Z" fill="url(#paint17_linear_489_3492)"/>
<path d="M30.3889 315.701C30.3889 314.566 32.4065 313.431 36.4416 312.548C44.5118 310.783 57.5629 310.783 65.6331 312.548C69.6682 313.431 71.6858 314.566 71.6858 315.701C71.6858 316.836 69.6682 317.971 65.6331 318.853C57.5629 320.619 44.5118 320.619 36.4416 318.853C32.4065 317.971 30.3889 316.836 30.3889 315.701Z" fill="url(#paint18_linear_489_3492)"/>
<path d="M27.0481 274.278L30.2636 315.89C30.2636 316.773 31.4615 317.592 33.9204 318.223C38.7751 319.547 46.6562 319.547 51.511 318.223C53.9699 317.592 55.1678 316.71 55.1678 315.89L58.3833 274.278H27.0481Z" fill="url(#paint19_linear_489_3492)"/>
<path d="M52.7723 297.165C47.224 298.678 38.2081 298.678 32.6598 297.165C30.3901 296.534 29.066 295.777 28.6877 295.021L30.327 315.953C30.327 316.836 31.5249 317.655 33.9838 318.286C38.8386 319.61 46.7196 319.61 51.5744 318.286C54.0333 317.655 55.2312 316.773 55.2312 315.953L56.8705 295.021C56.3661 295.777 55.0421 296.534 52.7723 297.165Z" fill="url(#paint20_linear_489_3492)"/>
<path d="M28.6252 294.58C28.6252 293.634 30.0123 292.625 32.7234 291.932C38.2086 290.481 47.1615 290.481 52.6468 291.932C55.4209 292.688 56.7449 293.634 56.7449 294.58C56.7449 295.525 55.3579 296.534 52.6468 297.228C47.1615 298.678 38.2086 298.678 32.7234 297.228C30.0123 296.534 28.6252 295.588 28.6252 294.58Z" fill="url(#paint21_linear_489_3492)"/>
<path d="M37.5768 274.278H31.1459L33.4787 318.097C33.6048 318.16 33.7939 318.16 33.92 318.223C34.9918 318.538 36.2528 318.727 37.5138 318.916V274.278H37.5768Z" fill="url(#paint22_linear_489_3492)"/>
<path d="M27.4264 278.818C28.246 279.322 29.4439 279.826 31.0202 280.268C37.5142 282.033 48.0433 282.033 54.4742 280.268C56.0505 279.826 57.2484 279.385 58.068 278.818L58.4463 274.278H27.0481L27.4264 278.818Z" fill="url(#paint23_linear_489_3492)"/>
<path d="M26.1643 274.593C26.1643 273.458 27.8036 272.324 31.019 271.441C37.5131 269.675 48.0422 269.675 54.4731 271.441C57.6886 272.324 59.3279 273.458 59.3279 274.593C59.3279 275.728 57.6886 276.863 54.4731 277.746C47.9791 279.511 37.45 279.511 31.019 277.746C27.7405 276.863 26.1643 275.728 26.1643 274.593Z" fill="url(#paint24_linear_489_3492)"/>
<path d="M48.7992 274.593L55.6084 262.11C56.1759 261.101 57.4369 260.66 58.5087 261.227L62.0394 262.992" stroke="url(#paint25_linear_489_3492)" stroke-width="2" stroke-miterlimit="10" stroke-linecap="round" stroke-linejoin="round"/>
<path d="M86.564 311.918C85.6182 311.666 84.9247 310.531 84.9247 309.018V248.554C84.9247 246.6 86.1226 244.645 87.5097 244.267L152.387 226.865C152.702 226.802 153.08 226.802 153.332 226.865C154.278 227.118 154.972 228.252 154.972 229.766V290.229C154.972 292.184 153.774 294.138 152.387 294.517L87.5097 311.918C87.1944 311.981 86.8792 311.981 86.564 311.918Z" fill="url(#paint26_linear_489_3492)"/>
<path d="M85.9969 312.738C85.9969 312.99 86.3752 313.242 87.0688 313.431L131.455 325.347C132.905 325.726 135.238 325.726 136.688 325.347L201.565 307.946C202.259 307.757 202.637 307.505 202.637 307.252V309.144C202.637 309.396 202.259 309.648 201.565 309.837L136.688 327.239C135.238 327.617 132.905 327.617 131.455 327.239L87.0688 315.323C86.3752 315.133 85.9969 314.881 85.9969 314.629V312.738Z" fill="url(#paint27_linear_489_3492)"/>
<path d="M85.9969 312.738C85.9969 312.485 86.3752 312.233 87.0688 312.044L151.946 294.643C153.396 294.264 155.729 294.264 157.179 294.643L201.565 306.559C202.259 306.748 202.637 307 202.637 307.252C202.637 307.505 202.259 307.757 201.565 307.946L136.688 325.347C135.238 325.726 132.905 325.726 131.455 325.347L87.0688 313.431C86.3122 313.242 85.9969 312.99 85.9969 312.738Z" fill="url(#paint28_linear_489_3492)"/>
<path d="M173.761 303.659C173.761 303.785 173.509 303.974 173.067 304.1L121.557 317.908C120.674 318.16 119.224 318.16 118.341 317.908L100.562 313.116C100.12 312.99 99.868 312.864 99.868 312.675C99.868 312.548 100.12 312.359 100.562 312.233L152.072 298.426C152.955 298.173 154.405 298.173 155.288 298.426L173.067 303.217C173.509 303.343 173.761 303.469 173.761 303.659Z" fill="url(#paint29_linear_489_3492)"/>
<path d="M173.76 312.864C173.76 312.99 173.571 313.116 173.256 313.179L152.828 318.664C152.135 318.853 151.063 318.853 150.369 318.664L139.966 315.89C139.588 315.764 139.462 315.701 139.462 315.575C139.462 315.449 139.651 315.323 139.966 315.26L160.394 309.774C161.087 309.585 162.159 309.585 162.853 309.774L173.193 312.548C173.571 312.611 173.76 312.738 173.76 312.864Z" fill="url(#paint30_linear_489_3492)"/>
<path opacity="0.5" d="M97.9142 277.43C96.8424 277.115 96.0858 275.917 96.0858 274.215C96.0858 272.008 97.4098 269.928 98.9861 269.486L145.516 257.003C145.894 256.877 146.273 256.877 146.588 257.003C147.66 257.318 148.416 258.516 148.416 260.218C148.416 262.425 147.092 264.505 145.516 264.947L98.9861 277.43C98.6078 277.493 98.2295 277.493 97.9142 277.43Z" stroke="white" stroke-miterlimit="10"/>
<path d="M126.538 263.56L123.512 264.379L121.494 269.865L124.457 269.045L126.538 263.56Z" fill="white"/>
<path d="M120.99 265.073L117.964 265.892L115.946 271.378L118.909 270.558L120.99 265.073Z" fill="white"/>
<path d="M115.441 266.586L112.415 267.343L110.397 272.891L113.361 272.071L115.441 266.586Z" fill="white"/>
<path d="M99.2382 275.854L102.264 275.035L104.282 269.549L101.319 270.369L99.2382 275.854Z" fill="white"/>
<path d="M109.893 268.036L106.867 268.856L104.786 274.341L107.812 273.584L109.893 268.036Z" fill="white"/>
<path d="M143.183 259.083L140.22 259.903L138.14 265.388L141.166 264.568L143.183 259.083Z" fill="white"/>
<path d="M145.138 263.497C146.147 263.244 146.966 261.92 146.966 260.533C146.966 259.461 146.525 258.705 145.831 258.516H145.768L143.751 263.875L145.138 263.497Z" fill="white"/>
<path d="M132.087 262.047L129.123 262.866L127.043 268.351L130.006 267.595L132.087 262.047Z" fill="white"/>
<path d="M137.636 260.596L134.672 261.353L132.592 266.901L135.618 266.082L137.636 260.596Z" fill="white"/>
<path d="M299.86 571.868H211.718V578.172H299.86V571.868Z" fill="url(#paint31_linear_489_3492)"/>
<path d="M369.655 590.719H281.513V597.024H369.655V590.719Z" fill="url(#paint32_linear_489_3492)"/>
<path d="M437.369 569.22H349.228V575.525H437.369V569.22Z" fill="url(#paint33_linear_489_3492)"/>
<path d="M365.557 547.342H277.415V553.647H365.557V547.342Z" fill="url(#paint34_linear_489_3492)"/>
<path d="M279.118 398.106L281.514 593.493" stroke="url(#paint35_linear_489_3492)" stroke-width="10" stroke-miterlimit="10" stroke-linecap="round" stroke-linejoin="round"/>
<path d="M238.577 387.198L211.719 574.768" stroke="url(#paint36_linear_489_3492)" stroke-width="10" stroke-miterlimit="10" stroke-linecap="round" stroke-linejoin="round"/>
<path d="M316.254 388.711L349.228 571.868" stroke="url(#paint37_linear_489_3492)" stroke-width="10" stroke-miterlimit="10" stroke-linecap="round" stroke-linejoin="round"/>
<path d="M356.731 350.441C354.902 349.936 353.011 350.882 352.254 352.711L345.697 369.355C342.167 378.245 334.601 384.991 325.396 387.513L282.018 399.114C280.001 399.619 278.803 401.699 279.37 403.717C279.748 405.041 280.757 406.05 282.018 406.365L201.568 384.802C200.307 384.487 199.298 383.478 198.92 382.154C198.416 380.137 199.551 378.119 201.568 377.552L244.946 365.951C254.151 363.492 261.78 356.683 265.247 347.793L271.804 331.148C272.498 329.383 274.452 328.437 276.281 328.878L356.731 350.441Z" fill="url(#paint38_linear_489_3492)"/>
<path d="M356.73 350.441C356.856 350.504 356.982 350.504 357.108 350.567C359.063 351.324 360.009 353.53 359.189 355.422L352.632 372.066C348.282 383.163 338.761 391.612 327.286 394.701L283.909 406.302C283.594 406.365 283.279 406.428 282.963 406.428C282.648 406.428 282.333 406.365 282.018 406.302C280.757 405.987 279.748 404.978 279.37 403.654C278.865 401.636 280 399.619 282.018 399.051L325.395 387.45C334.6 384.991 342.229 378.182 345.697 369.292L352.254 352.648C352.947 350.882 354.902 349.936 356.73 350.441Z" fill="url(#paint39_linear_489_3492)"/>
<path d="M235.737 470.296L262.596 518.592L281.448 510.08L262.407 458.632L235.737 470.296Z" fill="url(#paint40_linear_489_3492)"/>
<path d="M262.281 511.278C259.444 511.215 256.418 513.043 258.813 518.781C261.083 524.203 263.227 525.527 260.327 533.66C257.237 542.298 253.896 549.359 255.22 553.016C256.544 556.673 261.525 557.808 266.884 552.449C272.243 547.09 283.655 531.201 288.068 524.014C292.671 516.448 287.122 511.404 284.159 508.252C281.196 505.099 279.178 503.775 279.178 503.775C279.178 503.775 281.259 508.252 275.837 511.404C270.351 514.62 268.271 511.341 262.281 511.278Z" fill="url(#paint41_linear_489_3492)"/>
<path d="M288.636 514.052C288.699 516.007 288.195 518.15 286.745 520.546C282.016 528.364 269.533 545.576 263.795 551.44C261.336 553.899 259.003 555.097 256.923 555.349C259.13 556.862 262.912 556.421 266.821 552.512C272.181 547.153 283.592 531.264 288.006 524.077C290.465 520.042 290.023 516.763 288.636 514.052Z" fill="url(#paint42_linear_489_3492)"/>
<path d="M273 308.892C264.173 303.974 253.203 305.803 246.393 313.242C237.566 322.952 225.209 337.075 214.491 351.45C202.89 367.023 185.551 391.738 204.97 422.758C224.326 453.778 243.997 485.932 243.997 485.932L269.28 473.386C269.28 473.386 254.4 415.633 246.898 399.871C239.395 384.109 244.313 383.415 245.7 379.569C246.519 377.3 263.984 358.133 278.359 342.623C287.942 332.283 285.294 315.764 273 308.892Z" fill="url(#paint43_linear_489_3492)"/>
<path d="M235.612 278.818C239.647 270.306 250.429 240.421 260.517 220.561C268.524 204.736 293.302 213.436 284.034 231.531C272.559 253.977 262.912 278.313 255.599 289.536C247.655 301.767 229.308 292.058 235.612 278.818Z" fill="url(#paint44_linear_489_3492)"/>
<path d="M225.524 511.971L230.757 567.013L251.5 566.761L254.59 511.971H225.524Z" fill="url(#paint45_linear_489_3492)"/>
<path d="M256.544 348.171C256.544 348.171 247.465 359.331 234.036 369.293C220.607 379.254 211.906 394.575 212.473 418.849C213.041 443.123 224.894 522.438 224.894 522.438C242.611 530.004 255.409 522.059 255.409 522.059C255.409 522.059 257.679 499.677 261.336 467.838C264.615 438.646 258.562 416.831 261.336 408.004C264.11 399.178 320.034 379.822 325.898 353.846C331.257 330.076 320.16 315.449 320.16 315.449L260.895 296.724C260.895 296.724 244.502 311.666 241.539 322.826C238.575 334.048 256.544 348.171 256.544 348.171Z" fill="url(#paint46_linear_489_3492)"/>
<path d="M233.468 560.141C230.883 558.943 227.352 559.384 227.289 565.626C227.226 571.489 228.676 573.57 222.687 579.875C216.382 586.558 210.518 591.728 210.203 595.574C209.888 599.42 214.049 602.509 221.11 599.672C228.172 596.835 245.006 586.936 251.878 582.082C259.129 576.975 256.039 570.165 254.589 566.13C253.139 562.095 251.815 560.078 251.815 560.078C251.815 560.078 251.941 565.058 245.699 565.689C239.458 566.445 238.89 562.6 233.468 560.141Z" fill="url(#paint47_linear_489_3492)"/>
<path d="M255.977 570.292C256.04 573.381 254.968 576.659 251.059 579.434C243.682 584.604 225.587 595.259 218.085 598.285C215.626 599.231 213.482 599.546 211.717 599.357C213.482 600.933 216.761 601.438 221.111 599.735C228.172 596.961 245.006 586.999 251.879 582.145C257.049 578.551 256.986 574.074 255.977 570.292Z" fill="url(#paint48_linear_489_3492)"/>
<path d="M325.771 325.789C325.771 325.789 319.655 295.589 323.123 265.452C325.077 248.429 340.776 232.603 329.554 219.363C325.077 214.067 290.464 202.971 270.036 212.743C260.074 217.535 260.074 222.389 256.039 232.603C251.5 244.141 250.743 252.085 253.454 259.336C265.118 290.671 248.284 308.388 248.284 308.388C248.284 308.388 264.74 334.175 325.771 325.789Z" fill="url(#paint49_linear_489_3492)"/>
<path d="M305.028 187.776C305.028 187.776 301.434 208.771 312.405 211.923C312.405 211.923 309.315 211.293 302.128 215.769C283.717 227.181 274.071 246.285 274.071 246.285C274.071 246.285 270.162 223.146 280.691 210.599C287.942 201.962 285.357 192.567 285.357 192.567L305.028 187.776Z" fill="url(#paint50_linear_489_3492)"/>
<path d="M311.584 187.019C312.152 182.606 312.593 165.835 301.56 159.152C290.526 152.468 273.692 158.962 270.918 167.096C268.144 175.229 272.431 182.858 272.368 186.01C272.305 189.163 273.125 194.396 274.575 198.116C276.971 204.483 280.438 209.401 285.167 209.906C290.148 210.41 309.945 200.448 311.584 187.019Z" fill="url(#paint51_linear_489_3492)"/>
<path d="M271.423 166.97C271.423 166.97 268.838 171.32 271.045 178.823C273.252 186.262 272.873 188.343 273.063 191.243C273.567 201.016 281.007 208.266 281.007 208.266C281.007 208.266 272.873 213.941 266.569 207.005C257.048 196.602 268.964 169.365 268.964 169.365C268.964 169.365 267.325 157.954 277.539 151.964C288.32 145.659 310.703 147.361 316.314 161.673C321.925 175.986 321.295 189.226 330.689 201.772C324.699 208.14 315.746 214.445 306.857 212.175C294.814 209.086 300.489 193.198 300.93 189.478C302.569 176.931 291.41 175.607 279.746 174.346C272.747 173.527 271.423 166.97 271.423 166.97Z" fill="url(#paint52_linear_489_3492)"/>
<path d="M279.114 188.974C279.114 188.974 278.358 195.341 278.232 196.476C278.106 197.611 279.556 199.314 281.762 198.116" stroke="#2E405C" stroke-miterlimit="10" stroke-linecap="round"/>
<path d="M287.185 189.163C288.091 189.163 288.825 188.429 288.825 187.523C288.825 186.618 288.091 185.884 287.185 185.884C286.28 185.884 285.546 186.618 285.546 187.523C285.546 188.429 286.28 189.163 287.185 189.163Z" fill="#2E405C"/>
<path d="M275.332 190.108C276.237 190.108 276.971 189.374 276.971 188.469C276.971 187.564 276.237 186.83 275.332 186.83C274.427 186.83 273.693 187.564 273.693 188.469C273.693 189.374 274.427 190.108 275.332 190.108Z" fill="#2E405C"/>
<path d="M284.915 182.164C284.915 182.164 287.311 179.895 290.464 182.164" stroke="#2E405C" stroke-miterlimit="10" stroke-linecap="round"/>
<path d="M272.117 183.236C272.117 183.236 274.512 180.966 277.665 183.236" stroke="#2E405C" stroke-miterlimit="10" stroke-linecap="round"/>
<path d="M284.915 202.403C284.915 202.403 289.959 200.701 289.896 195.909" stroke="#2E405C" stroke-miterlimit="10" stroke-linecap="round"/>
<path d="M256.418 196.476C256.103 199.503 255.977 200.385 255.977 200.385C255.977 200.385 253.896 198.935 251.437 200.575C251.437 200.575 248.6 198.809 246.772 201.331C246.772 201.331 245.574 200.701 243.746 201.079C241.917 201.457 241.35 203.286 241.161 205.177C240.971 207.069 241.287 224.029 240.971 227.748C239.837 240.926 237.567 259.651 234.603 281.277C231.64 302.902 258.625 302.587 257.553 280.205C256.481 257.823 255.914 223.903 255.977 222.263C256.04 220.624 258.121 214.193 259.003 210.725C259.634 208.266 260.579 202.151 260.895 196.287C260.958 194.9 260.769 193.891 259.192 193.072C257.112 192 255.851 191.622 253.329 190.55C250.87 189.541 249.861 192.63 253.14 194.522C256.418 196.413 256.418 196.476 256.418 196.476Z" fill="url(#paint53_linear_489_3492)"/>
<path d="M241.665 202.214C241.097 204.358 239.962 209.464 239.71 211.167C239.521 212.491 241.854 213.563 242.799 211.167C243.745 208.771 245.511 204.484 246.267 201.773C246.582 200.638 242.484 199.188 241.665 202.214Z" fill="url(#paint54_linear_489_3492)"/>
<path d="M246.015 201.394C245.384 203.853 244.06 209.717 243.745 211.734C243.493 213.247 246.204 214.508 247.276 211.734C248.348 208.96 250.365 204.042 251.248 200.953C251.689 199.629 246.96 197.927 246.015 201.394Z" fill="url(#paint55_linear_489_3492)"/>
<path d="M250.934 201.52C250.303 203.979 248.979 209.843 248.664 211.86C248.412 213.373 251.123 214.634 252.195 211.86C253.266 209.086 255.284 204.168 256.167 201.079C256.608 199.755 251.879 198.116 250.934 201.52Z" fill="url(#paint56_linear_489_3492)"/>
<path d="M257.112 217.346C257.112 217.346 257.364 211.104 257.112 209.717C256.86 208.33 255.851 207.006 252.699 207.321C249.483 207.699 245.385 207.699 245.07 208.645C244.755 209.654 245.827 211.104 247.844 211.293C249.862 211.545 251.375 211.671 251.375 211.671C251.375 211.671 246.709 213.437 246.772 217.409C246.835 223.272 256.671 222.768 257.112 217.346Z" fill="url(#paint57_linear_489_3492)"/>
<path d="M242.612 294.391C243.558 293.949 244.062 292.688 243.81 291.175L238.262 257.129C237.946 255.112 236.433 253.346 234.857 253.157L223.697 252.022C223.319 251.959 223.004 252.022 222.689 252.148L223.887 251.581C224.202 251.455 224.517 251.392 224.895 251.455L236.055 252.59C237.631 252.716 239.144 254.544 239.46 256.562L245.008 290.608C245.26 292.184 244.756 293.445 243.81 293.823L242.612 294.391Z" fill="url(#paint58_linear_489_3492)"/>
<path d="M242.613 294.391C242.297 294.517 241.982 294.58 241.604 294.517L230.444 293.382C228.868 293.256 227.355 291.428 227.04 289.41L221.491 255.364C221.239 253.788 221.744 252.527 222.689 252.148C223.005 252.022 223.32 251.959 223.698 252.022L234.858 253.157C236.434 253.283 237.947 255.112 238.262 257.129L243.811 291.175C244.063 292.752 243.558 293.95 242.613 294.391Z" fill="url(#paint59_linear_489_3492)"/>
<path d="M223.76 254.04C223.886 253.977 224.076 253.914 224.265 253.977C225.084 254.04 225.904 254.985 226.093 256.12C226.219 256.94 225.967 257.633 225.463 257.886C225.337 257.949 225.147 258.012 224.958 257.949C224.139 257.886 223.319 256.94 223.13 255.805C223.004 254.985 223.256 254.292 223.76 254.04Z" fill="white"/>
<path d="M242.106 272.198C237.062 273.459 226.47 276.674 223.381 277.62C220.67 278.439 220.922 281.087 223.633 281.087C226.344 281.024 235.612 278.818 235.612 278.818C235.612 278.818 228.866 282.159 225.65 283.799C221.552 285.879 224.768 288.905 227.037 287.834C229.559 286.636 237.756 282.727 237.756 282.727C237.756 282.727 233.153 286.005 230.757 287.708C228.424 289.347 230.316 291.806 232.144 290.797C234.099 289.725 240.782 286.131 240.782 286.131C240.782 286.131 237.63 288.149 235.36 290.103C233.153 292.058 234.414 292.878 235.549 292.878C236.684 292.878 241.223 290.23 243.178 289.473C246.141 288.338 252.005 287.771 255.22 288.338C258.436 288.905 297.337 301.957 318.836 307.757C334.851 312.044 341.345 287.329 321.736 284.177C302.822 281.151 256.481 274.656 248.915 269.045C245.006 266.145 242.358 262.299 241.791 261.732C240.467 260.344 239.143 262.614 239.899 265.388C240.845 267.973 242.106 272.198 242.106 272.198Z" fill="url(#paint60_linear_489_3492)"/>
<path d="M311.082 296.03C311.145 286.636 306.858 254.922 308.938 232.729C311.019 210.536 336.869 211.104 335.734 236.323C334.599 261.542 335.356 285.942 333.527 299.182C331.51 313.558 310.956 310.657 311.082 296.03Z" fill="url(#paint61_linear_489_3492)"/>
<defs>
<linearGradient id="paint0_linear_489_3492" x1="455.701" y1="470.105" x2="393.512" y2="470.105" gradientUnits="userSpaceOnUse">
<stop stop-color="white"/>
<stop offset="1" stop-color="#AEBDDF"/>
</linearGradient>
<linearGradient id="paint1_linear_489_3492" x1="313.915" y1="-79.7264" x2="313.915" y2="506.687" gradientUnits="userSpaceOnUse">
<stop stop-color="#ACBDDE"/>
<stop offset="1" stop-color="#2E405C"/>
</linearGradient>
<linearGradient id="paint2_linear_489_3492" x1="521.408" y1="249.402" x2="-146.201" y2="249.402" gradientUnits="userSpaceOnUse">
<stop stop-color="white"/>
<stop offset="1" stop-color="#AEBDDF"/>
</linearGradient>
<linearGradient id="paint3_linear_489_3492" x1="298.19" y1="39.1889" x2="298.19" y2="532.648" gradientUnits="userSpaceOnUse">
<stop stop-color="#727AD8"/>
<stop offset="1" stop-color="#A9D6FF"/>
</linearGradient>
<linearGradient id="paint4_linear_489_3492" x1="453.118" y1="138.646" x2="403.447" y2="187.659" gradientUnits="userSpaceOnUse">
<stop stop-color="#ACBDDE"/>
<stop offset="1" stop-color="#2E405C"/>
</linearGradient>
<linearGradient id="paint5_linear_489_3492" x1="469.063" y1="167.841" x2="373.668" y2="192.512" gradientUnits="userSpaceOnUse">
<stop stop-color="#ACBDDE"/>
<stop offset="1" stop-color="#2E405C"/>
</linearGradient>
<linearGradient id="paint6_linear_489_3492" x1="269.563" y1="89.6605" x2="269.563" y2="594.065" gradientUnits="userSpaceOnUse">
<stop stop-color="white"/>
<stop offset="1" stop-color="#AEBDDF"/>
</linearGradient>
<linearGradient id="paint7_linear_489_3492" x1="269.562" y1="30.8795" x2="269.562" y2="347.048" gradientUnits="userSpaceOnUse">
<stop stop-color="white"/>
<stop offset="1" stop-color="#AEBDDF"/>
</linearGradient>
<linearGradient id="paint8_linear_489_3492" x1="269.878" y1="30.312" x2="269.878" y2="180.167" gradientUnits="userSpaceOnUse">
<stop stop-color="white"/>
<stop offset="1" stop-color="#AEBDDF"/>
</linearGradient>
<linearGradient id="paint9_linear_489_3492" x1="346.665" y1="110.439" x2="346.665" y2="126.622" gradientUnits="userSpaceOnUse">
<stop stop-color="#ACBDDE"/>
<stop offset="1" stop-color="#2E405C"/>
</linearGradient>
<linearGradient id="paint10_linear_489_3492" x1="279.17" y1="53.9686" x2="279.17" y2="157.682" gradientUnits="userSpaceOnUse">
<stop stop-color="white"/>
<stop offset="1" stop-color="#AEBDDF"/>
</linearGradient>
<linearGradient id="paint11_linear_489_3492" x1="279.17" y1="83.1115" x2="279.17" y2="186.825" gradientUnits="userSpaceOnUse">
<stop stop-color="white"/>
<stop offset="1" stop-color="#AEBDDF"/>
</linearGradient>
<linearGradient id="paint12_linear_489_3492" x1="279.17" y1="112.255" x2="279.17" y2="215.968" gradientUnits="userSpaceOnUse">
<stop stop-color="white"/>
<stop offset="1" stop-color="#AEBDDF"/>
</linearGradient>
<linearGradient id="paint13_linear_489_3492" x1="279.17" y1="141.398" x2="279.17" y2="245.111" gradientUnits="userSpaceOnUse">
<stop stop-color="white"/>
<stop offset="1" stop-color="#AEBDDF"/>
</linearGradient>
<linearGradient id="paint14_linear_489_3492" x1="168.584" y1="520.653" x2="71.9636" y2="520.653" gradientUnits="userSpaceOnUse">
<stop stop-color="white"/>
<stop offset="1" stop-color="#AEBDDF"/>
</linearGradient>
<linearGradient id="paint15_linear_489_3492" x1="99.531" y1="426.08" x2="115.657" y2="426.08" gradientUnits="userSpaceOnUse">
<stop stop-color="white"/>
<stop offset="1" stop-color="#AEBDDF"/>
</linearGradient>
<linearGradient id="paint16_linear_489_3492" x1="107.866" y1="362.785" x2="107.866" y2="335.451" gradientUnits="userSpaceOnUse">
<stop stop-color="white"/>
<stop offset="1" stop-color="#AEBDDF"/>
</linearGradient>
<linearGradient id="paint17_linear_489_3492" x1="107.865" y1="340.666" x2="107.865" y2="161.556" gradientUnits="userSpaceOnUse">
<stop stop-color="white"/>
<stop offset="1" stop-color="#AEBDDF"/>
</linearGradient>
<linearGradient id="paint18_linear_489_3492" x1="46.6405" y1="286.473" x2="53.1142" y2="329.361" gradientUnits="userSpaceOnUse">
<stop stop-color="white"/>
<stop offset="1" stop-color="#AEBDDF"/>
</linearGradient>
<linearGradient id="paint19_linear_489_3492" x1="16.4524" y1="296.766" x2="65.5846" y2="296.766" gradientUnits="userSpaceOnUse">
<stop stop-color="#ACBDDE" stop-opacity="0.1"/>
<stop offset="1" stop-color="#2E405C"/>
</linearGradient>
<linearGradient id="paint20_linear_489_3492" x1="25.3092" y1="307.111" x2="65.7164" y2="307.111" gradientUnits="userSpaceOnUse">
<stop stop-color="#FFEFA4"/>
<stop offset="1" stop-color="#FE8F01"/>
</linearGradient>
<linearGradient id="paint21_linear_489_3492" x1="42.7349" y1="281.923" x2="42.7349" y2="302.834" gradientUnits="userSpaceOnUse">
<stop stop-color="#FFEFA4"/>
<stop offset="1" stop-color="#FE8F01"/>
</linearGradient>
<linearGradient id="paint22_linear_489_3492" x1="34.3675" y1="317.798" x2="34.3675" y2="269.808" gradientUnits="userSpaceOnUse">
<stop offset="0.00558659" stop-color="white" stop-opacity="0"/>
<stop offset="1" stop-color="white"/>
</linearGradient>
<linearGradient id="paint23_linear_489_3492" x1="21.9306" y1="277.395" x2="64.4594" y2="278.204" gradientUnits="userSpaceOnUse">
<stop stop-color="#ACBDDE" stop-opacity="0.1"/>
<stop offset="1" stop-color="#2E405C"/>
</linearGradient>
<linearGradient id="paint24_linear_489_3492" x1="42.741" y1="278.986" x2="42.741" y2="259.744" gradientUnits="userSpaceOnUse">
<stop stop-color="white"/>
<stop offset="1" stop-color="#AEBDDF"/>
</linearGradient>
<linearGradient id="paint25_linear_489_3492" x1="48.1586" y1="267.805" x2="62.6936" y2="267.805" gradientUnits="userSpaceOnUse">
<stop stop-color="#5D6E8C"/>
<stop offset="1" stop-color="#2E405C"/>
</linearGradient>
<linearGradient id="paint26_linear_489_3492" x1="119.974" y1="190.571" x2="119.974" y2="313.087" gradientUnits="userSpaceOnUse">
<stop stop-color="#ACBDDE"/>
<stop offset="1" stop-color="#2E405C"/>
</linearGradient>
<linearGradient id="paint27_linear_489_3492" x1="144.298" y1="335.43" x2="144.298" y2="295.382" gradientUnits="userSpaceOnUse">
<stop stop-color="#ACBDDE"/>
<stop offset="1" stop-color="#2E405C"/>
</linearGradient>
<linearGradient id="paint28_linear_489_3492" x1="146.67" y1="352.916" x2="143.246" y2="290.977" gradientUnits="userSpaceOnUse">
<stop stop-color="white"/>
<stop offset="1" stop-color="#AEBDDF"/>
</linearGradient>
<linearGradient id="paint29_linear_489_3492" x1="58.4704" y1="308.144" x2="207.726" y2="308.144" gradientUnits="userSpaceOnUse">
<stop stop-color="#ACBDDE"/>
<stop offset="1" stop-color="#2E405C"/>
</linearGradient>
<linearGradient id="paint30_linear_489_3492" x1="58.4697" y1="314.195" x2="207.725" y2="314.195" gradientUnits="userSpaceOnUse">
<stop stop-color="#ACBDDE"/>
<stop offset="1" stop-color="#2E405C"/>
</linearGradient>
<linearGradient id="paint31_linear_489_3492" x1="281.707" y1="575.025" x2="191.985" y2="575.025" gradientUnits="userSpaceOnUse">
<stop stop-color="white"/>
<stop offset="1" stop-color="#AEBDDF"/>
</linearGradient>
<linearGradient id="paint32_linear_489_3492" x1="337.997" y1="593.857" x2="262.336" y2="593.857" gradientUnits="userSpaceOnUse">
<stop stop-color="white"/>
<stop offset="1" stop-color="#AEBDDF"/>
</linearGradient>
<linearGradient id="paint33_linear_489_3492" x1="425.953" y1="572.367" x2="295.695" y2="572.367" gradientUnits="userSpaceOnUse">
<stop stop-color="white"/>
<stop offset="1" stop-color="#AEBDDF"/>
</linearGradient>
<linearGradient id="paint34_linear_489_3492" x1="337.998" y1="550.476" x2="262.337" y2="550.476" gradientUnits="userSpaceOnUse">
<stop stop-color="white"/>
<stop offset="1" stop-color="#AEBDDF"/>
</linearGradient>
<linearGradient id="paint35_linear_489_3492" x1="275.97" y1="495.791" x2="284.64" y2="495.791" gradientUnits="userSpaceOnUse">
<stop stop-color="#5D6E8C"/>
<stop offset="1" stop-color="#2E405C"/>
</linearGradient>
<linearGradient id="paint36_linear_489_3492" x1="208.54" y1="481.007" x2="241.714" y2="481.007" gradientUnits="userSpaceOnUse">
<stop stop-color="#5D6E8C"/>
<stop offset="1" stop-color="#2E405C"/>
</linearGradient>
<linearGradient id="paint37_linear_489_3492" x1="313.099" y1="480.315" x2="352.399" y2="480.315" gradientUnits="userSpaceOnUse">
<stop stop-color="#5D6E8C"/>
<stop offset="1" stop-color="#2E405C"/>
</linearGradient>
<linearGradient id="paint38_linear_489_3492" x1="477.377" y1="367.52" x2="273.992" y2="367.52" gradientUnits="userSpaceOnUse">
<stop stop-color="white"/>
<stop offset="1" stop-color="#AEBDDF"/>
</linearGradient>
<linearGradient id="paint39_linear_489_3492" x1="365.777" y1="372.186" x2="237.95" y2="389.19" gradientUnits="userSpaceOnUse">
<stop stop-color="white"/>
<stop offset="1" stop-color="#AEBDDF"/>
</linearGradient>
<linearGradient id="paint40_linear_489_3492" x1="278.93" y1="535.443" x2="246.094" y2="457.456" gradientUnits="userSpaceOnUse">
<stop stop-color="#FFD2BB"/>
<stop offset="1" stop-color="#FF6B5A"/>
</linearGradient>
<linearGradient id="paint41_linear_489_3492" x1="272.34" y1="490.069" x2="272.34" y2="583.054" gradientUnits="userSpaceOnUse">
<stop stop-color="white"/>
<stop offset="1" stop-color="#AEBDDF"/>
</linearGradient>
<linearGradient id="paint42_linear_489_3492" x1="273.346" y1="482.174" x2="273.346" y2="556.247" gradientUnits="userSpaceOnUse">
<stop stop-color="#ACBDDE"/>
<stop offset="1" stop-color="#2E405C"/>
</linearGradient>
<linearGradient id="paint43_linear_489_3492" x1="240.207" y1="594.475" x2="240.207" y2="392.576" gradientUnits="userSpaceOnUse">
<stop stop-color="#ACBDDE"/>
<stop offset="1" stop-color="#2E405C"/>
</linearGradient>
<linearGradient id="paint44_linear_489_3492" x1="260.178" y1="181.76" x2="260.178" y2="316.724" gradientUnits="userSpaceOnUse">
<stop stop-color="#FFD2BB"/>
<stop offset="1" stop-color="#FF6B5A"/>
</linearGradient>
<linearGradient id="paint45_linear_489_3492" x1="240.063" y1="577.196" x2="240.063" y2="469.257" gradientUnits="userSpaceOnUse">
<stop stop-color="#FFD2BB"/>
<stop offset="1" stop-color="#FF6B5A"/>
</linearGradient>
<linearGradient id="paint46_linear_489_3492" x1="269.895" y1="580.411" x2="269.895" y2="338.422" gradientUnits="userSpaceOnUse">
<stop stop-color="#ACBDDE"/>
<stop offset="1" stop-color="#2E405C"/>
</linearGradient>
<linearGradient id="paint47_linear_489_3492" x1="233.34" y1="547.799" x2="233.34" y2="619.373" gradientUnits="userSpaceOnUse">
<stop stop-color="white"/>
<stop offset="1" stop-color="#AEBDDF"/>
</linearGradient>
<linearGradient id="paint48_linear_489_3492" x1="234.098" y1="550.267" x2="234.098" y2="605.565" gradientUnits="userSpaceOnUse">
<stop stop-color="#ACBDDE"/>
<stop offset="1" stop-color="#2E405C"/>
</linearGradient>
<linearGradient id="paint49_linear_489_3492" x1="290.898" y1="183.494" x2="290.898" y2="409.752" gradientUnits="userSpaceOnUse">
<stop stop-color="#FFEFA4"/>
<stop offset="1" stop-color="#FE8F01"/>
</linearGradient>
<linearGradient id="paint50_linear_489_3492" x1="292.896" y1="270.002" x2="292.896" y2="192.887" gradientUnits="userSpaceOnUse">
<stop stop-color="#FFD2BB"/>
<stop offset="1" stop-color="#FF6B5A"/>
</linearGradient>
<linearGradient id="paint51_linear_489_3492" x1="290.897" y1="250.758" x2="290.897" y2="121.142" gradientUnits="userSpaceOnUse">
<stop stop-color="#FFD2BB"/>
<stop offset="1" stop-color="#FF6B5A"/>
</linearGradient>
<linearGradient id="paint52_linear_489_3492" x1="373.622" y1="60.3999" x2="289.463" y2="198.776" gradientUnits="userSpaceOnUse">
<stop stop-color="#ACBDDE"/>
<stop offset="1" stop-color="#2E405C"/>
</linearGradient>
<linearGradient id="paint53_linear_489_3492" x1="254.517" y1="166.537" x2="244.701" y2="300.344" gradientUnits="userSpaceOnUse">
<stop stop-color="#FFD2BB"/>
<stop offset="1" stop-color="#FF6B5A"/>
</linearGradient>
<linearGradient id="paint54_linear_489_3492" x1="242.996" y1="187.605" x2="242.996" y2="215.261" gradientUnits="userSpaceOnUse">
<stop stop-color="#FFD2BB"/>
<stop offset="1" stop-color="#FF6B5A"/>
</linearGradient>
<linearGradient id="paint55_linear_489_3492" x1="247.538" y1="187.605" x2="247.538" y2="215.261" gradientUnits="userSpaceOnUse">
<stop stop-color="#FFD2BB"/>
<stop offset="1" stop-color="#FF6B5A"/>
</linearGradient>
<linearGradient id="paint56_linear_489_3492" x1="252.44" y1="187.605" x2="252.44" y2="215.261" gradientUnits="userSpaceOnUse">
<stop stop-color="#FFD2BB"/>
<stop offset="1" stop-color="#FF6B5A"/>
</linearGradient>
<linearGradient id="paint57_linear_489_3492" x1="250.07" y1="235.616" x2="251.688" y2="198.572" gradientUnits="userSpaceOnUse">
<stop stop-color="#FFD2BB"/>
<stop offset="1" stop-color="#FF6B5A"/>
</linearGradient>
<linearGradient id="paint58_linear_489_3492" x1="253.028" y1="241.957" x2="239.37" y2="263.671" gradientUnits="userSpaceOnUse">
<stop stop-color="#ACBDDE"/>
<stop offset="1" stop-color="#2E405C"/>
</linearGradient>
<linearGradient id="paint59_linear_489_3492" x1="257.329" y1="247.03" x2="220.826" y2="285.947" gradientUnits="userSpaceOnUse">
<stop stop-color="#ACBDDE"/>
<stop offset="1" stop-color="#2E405C"/>
</linearGradient>
<linearGradient id="paint60_linear_489_3492" x1="156.925" y1="284.637" x2="424.066" y2="284.637" gradientUnits="userSpaceOnUse">
<stop stop-color="#FFD2BB"/>
<stop offset="1" stop-color="#FF6B5A"/>
</linearGradient>
<linearGradient id="paint61_linear_489_3492" x1="156.926" y1="262.639" x2="424.067" y2="262.639" gradientUnits="userSpaceOnUse">
<stop stop-color="#FFD2BB"/>
<stop offset="1" stop-color="#FF6B5A"/>
</linearGradient>
</defs>
</svg>
